<?xml version="1.0" encoding="utf-8"?>
<!-- Generator: Adobe Illustrator 23.0.2, SVG Export Plug-In . SVG Version: 6.00 Build 0)  -->
<svg version="1.1" id="Layer_1" xmlns="http://www.w3.org/2000/svg" xmlns:xlink="http://www.w3.org/1999/xlink" width="532px" height="349px" viewBox="0 0 532 349" style="enable-background:new 0 0 532 349;" xml:space="preserve">
<style type="text/css">
	.st0{fill-rule:evenodd;clip-rule:evenodd;fill:#FFFFFF;stroke:#AAAEB4;stroke-width:1.0172;}
	.st1{filter:url(#Adobe_OpacityMaskFilter);}
	.st2{fill-rule:evenodd;clip-rule:evenodd;fill:#FFFFFF;}
	.st3{mask:url(#mask-2_1_);fill-rule:evenodd;clip-rule:evenodd;fill:#FFFFFF;stroke:#AAAEB4;stroke-width:1.0172;}
	.st4{filter:url(#Adobe_OpacityMaskFilter_1_);}

		.st5{mask:url(#mask-2_6_);fill:none;stroke:#00BCFF;stroke-width:3;stroke-linecap:round;stroke-linejoin:round;stroke-dasharray:2,8;}
	.st6{filter:url(#Adobe_OpacityMaskFilter_2_);}

		.st7{mask:url(#mask-2_7_);fill:none;stroke:#00BCFF;stroke-width:3;stroke-linecap:round;stroke-linejoin:round;stroke-dasharray:2,8;}
	.st8{filter:url(#Adobe_OpacityMaskFilter_3_);}

		.st9{mask:url(#mask-2_8_);fill:none;stroke:#00BCFF;stroke-width:3;stroke-linecap:round;stroke-linejoin:round;stroke-dasharray:2,8;}
	.st10{filter:url(#Adobe_OpacityMaskFilter_4_);}

		.st11{mask:url(#mask-2_9_);fill:none;stroke:#00BCFF;stroke-width:3;stroke-linecap:round;stroke-linejoin:round;stroke-dasharray:2,8;}
	.st12{filter:url(#Adobe_OpacityMaskFilter_5_);}
	.st13{mask:url(#mask-2_10_);fill-rule:evenodd;clip-rule:evenodd;fill:#00BCFF;}
	.st14{filter:url(#Adobe_OpacityMaskFilter_6_);}
	.st15{mask:url(#mask-2_11_);fill-rule:evenodd;clip-rule:evenodd;fill:#00BCFF;}
	.st16{filter:url(#Adobe_OpacityMaskFilter_7_);}
	.st17{mask:url(#mask-2_12_);fill-rule:evenodd;clip-rule:evenodd;fill:#00BCFF;}
	.st18{filter:url(#Adobe_OpacityMaskFilter_8_);}
	.st19{mask:url(#mask-2_13_);fill-rule:evenodd;clip-rule:evenodd;fill:#00BCFF;}
	.st20{filter:url(#Adobe_OpacityMaskFilter_9_);}
	.st21{mask:url(#mask-2_14_);fill-rule:evenodd;clip-rule:evenodd;fill:#79DBFF;}
</style>
<title>6 copy</title>
<desc>Created with Sketch.</desc>
<g>
	<g transform="translate(-779.000000, -8984.000000)">
		<g transform="translate(780.000000, 8985.000000)">
			<g id="Group-17" transform="translate(-0.000000, -0.000000)">
				<g id="Mask">
					<path class="st0" d="M6.1,0h517.8c3.4,0,6.1,2.7,6.1,6.1v334.8c0,3.4-2.7,6.1-6.1,6.1H6.1c-3.4,0-6.1-2.7-6.1-6.1V6.1
						C0,2.7,2.7,0,6.1,0z"/>
				</g>
				<defs>
					<filter id="Adobe_OpacityMaskFilter" filterUnits="userSpaceOnUse" x="-0.5" y="-0.5" width="531" height="21">
						<feColorMatrix  type="matrix" values="1 0 0 0 0  0 1 0 0 0  0 0 1 0 0  0 0 0 1 0"/>
					</filter>
				</defs>
				<mask maskUnits="userSpaceOnUse" x="-0.5" y="-0.5" width="531" height="21" id="mask-2_1_">
					<g class="st1">
						<path id="path-1_1_" class="st2" d="M6.1,0h517.8c3.4,0,6.1,2.7,6.1,6.1v334.8c0,3.4-2.7,6.1-6.1,6.1H6.1
							c-3.4,0-6.1-2.7-6.1-6.1V6.1C0,2.7,2.7,0,6.1,0z"/>
					</g>
				</mask>
				<path id="Combined-Shape" class="st3" d="M523.9,0c3.4,0,6.1,2.7,6.1,6.1V20H0V6.1C0,2.7,2.7,0,6.1,0H523.9z M10.5,7
					C8.6,7,7,8.6,7,10.5S8.6,14,10.5,14s3.5-1.6,3.5-3.5S12.4,7,10.5,7z M20.5,7C18.6,7,17,8.6,17,10.5s1.6,3.5,3.5,3.5
					s3.5-1.6,3.5-3.5S22.4,7,20.5,7z M31.5,7C29.6,7,28,8.6,28,10.5s1.6,3.5,3.5,3.5s3.5-1.6,3.5-3.5S33.4,7,31.5,7z"/>
				<g>
					<path d="M119.8,80.2c2.6,0,4.2-1,5.7-2.5l-1.6-1.6c-1.2,1.1-2.3,1.8-4,1.8c-2.7,0-4.6-2.2-4.6-5c0-2.8,1.9-5,4.6-5
						c1.6,0,2.8,0.7,3.9,1.7l1.6-1.8c-1.3-1.3-2.9-2.2-5.5-2.2c-4.2,0-7.2,3.3-7.2,7.2C112.7,77.1,115.7,80.2,119.8,80.2z"/>
					<path d="M134,80.2c4.3,0,7.3-3.3,7.3-7.2c0-4-3-7.2-7.3-7.2c-4.3,0-7.3,3.3-7.3,7.2C126.7,77,129.7,80.2,134,80.2z M134,68
						c2.8,0,4.8,2.3,4.8,5c0,2.8-1.9,5-4.7,5c-2.8,0-4.8-2.3-4.8-5C129.3,70.2,131.2,68,134,68z"/>
					<path d="M149.2,66H144v14h5.2c4.4,0,7.4-3.1,7.4-7C156.6,69,153.6,66,149.2,66z M149.2,77.8h-2.8v-9.5h2.8c2.9,0,4.9,2,4.9,4.8
						C154,75.8,152.1,77.8,149.2,77.8z"/>
					<polygon points="161.7,74 168.7,74 168.7,71.8 161.7,71.8 161.7,68.2 169.6,68.2 169.6,66 159.3,66 159.3,80 169.7,80
						169.7,77.8 161.7,77.8 					"/>
					<path d="M119,252.8c1-0.5,2-1.4,2-3.1c0-1-0.3-1.7-0.9-2.4c-0.8-0.8-2.1-1.2-3.7-1.2h-6.3v14h6.5c3.1,0,5.2-1.3,5.2-3.8
						C121.8,254.3,120.6,253.3,119,252.8z M112.5,248.2h3.5c1.6,0,2.5,0.7,2.5,1.8c0,1.3-1.1,1.9-2.6,1.9h-3.4V248.2z M116.6,257.9
						h-4.1V254h3.9c1.9,0,2.9,0.7,2.9,1.9C119.3,257.2,118.3,257.9,116.6,257.9z"/>
					<path d="M133.5,254.1c0,2.6-1.3,3.9-3.5,3.9c-2.2,0-3.5-1.4-3.5-4v-8H124v8.1c0,4.1,2.3,6.2,6,6.2c3.7,0,6-2.1,6-6.3V246h-2.5
						V254.1z"/>
					<rect x="139.1" y="246" width="2.5" height="14"/>
					<polygon points="147.5,246 145,246 145,260 154.8,260 154.8,257.8 147.5,257.8 					"/>
					<path d="M162.3,246H157v14h5.2c4.4,0,7.4-3.1,7.4-7C169.7,249.1,166.7,246,162.3,246z M162.3,257.8h-2.8v-9.5h2.8
						c2.9,0,4.9,2,4.9,4.8C167.1,255.8,165.2,257.8,162.3,257.8z"/>
					<polygon points="358.8,80 361.3,80 361.3,68.3 365.7,68.3 365.7,66 354.3,66 354.3,68.3 358.8,68.3 					"/>
					<polygon points="378.4,77.8 370.4,77.8 370.4,74 377.4,74 377.4,71.8 370.4,71.8 370.4,68.2 378.3,68.2 378.3,66 368,66
						368,80 378.4,80 					"/>
					<path d="M386,78c-1.7,0-3.1-0.7-4.4-1.8l-1.5,1.8c1.7,1.5,3.7,2.2,5.8,2.2c2.9,0,5-1.6,5-4.2c0-2.4-1.5-3.4-4.5-4.1
						c-2.7-0.6-3.3-1.1-3.3-2.2c0-1,0.8-1.7,2.3-1.7c1.3,0,2.5,0.5,3.8,1.4l1.3-1.9c-1.4-1.1-3-1.8-5.1-1.8c-2.8,0-4.8,1.7-4.8,4.1
						c0,2.6,1.7,3.5,4.7,4.2c2.6,0.6,3.2,1.2,3.2,2.2C388.5,77.3,387.5,78,386,78z"/>
					<polygon points="399.1,80 399.1,68.3 403.5,68.3 403.5,66 392.2,66 392.2,68.3 396.6,68.3 396.6,80 					"/>
					<path d="M360.6,246h-5.2v14h5.2c4.4,0,7.4-3.1,7.4-7C368,249.1,365,246,360.6,246z M360.6,257.8h-2.8v-9.5h2.8
						c2.9,0,4.9,2,4.9,4.8C365.4,255.8,363.5,257.8,360.6,257.8z"/>
					<polygon points="373.1,254.1 380.1,254.1 380.1,251.9 373.1,251.9 373.1,248.2 381,248.2 381,246 370.6,246 370.6,260
						381.1,260 381.1,257.8 373.1,257.8 					"/>
					<path d="M389.2,246h-5.5v14h2.5v-4.5h2.8c3.1,0,5.6-1.6,5.6-4.8C394.5,247.9,392.5,246,389.2,246z M389,253.3h-2.9v-5h2.9
						c1.8,0,3,0.9,3,2.5C392,252.3,390.9,253.3,389,253.3z"/>
					<polygon points="399.2,246 396.7,246 396.7,260 406.5,260 406.5,257.8 399.2,257.8 					"/>
					<path d="M414.7,245.8c-4.3,0-7.3,3.3-7.3,7.2c0,4,3,7.2,7.3,7.2c4.3,0,7.3-3.3,7.3-7.2C422,249.1,419,245.8,414.7,245.8z
						 M414.7,258c-2.8,0-4.8-2.3-4.8-5c0-2.8,1.9-5,4.7-5c2.8,0,4.8,2.3,4.8,5C419.4,255.8,417.5,258,414.7,258z"/>
					<polygon points="432.8,246 428.8,252.2 424.9,246 422,246 427.5,254.5 427.5,260 430,260 430,254.5 435.6,246 					"/>
				</g>
				<defs>
					<filter id="Adobe_OpacityMaskFilter_1_" filterUnits="userSpaceOnUse" x="181.7" y="81.3" width="31" height="45">
						<feColorMatrix  type="matrix" values="1 0 0 0 0  0 1 0 0 0  0 0 1 0 0  0 0 0 1 0"/>
					</filter>
				</defs>
				<mask maskUnits="userSpaceOnUse" x="181.7" y="81.3" width="31" height="45" id="mask-2_6_">
					<g class="st4">
						<path id="path-1_6_" class="st2" d="M6.1,0h517.8c3.4,0,6.1,2.7,6.1,6.1v334.8c0,3.4-2.7,6.1-6.1,6.1H6.1
							c-3.4,0-6.1-2.7-6.1-6.1V6.1C0,2.7,2.7,0,6.1,0z"/>
					</g>
				</mask>
				<path id="Path-2-Copy" class="st5" d="M211.2,124.8c-0.4-15.1-3-26-7.9-32.8c-4.8-6.8-11.5-9.8-20.1-9.1"/>
				<defs>
					<filter id="Adobe_OpacityMaskFilter_2_" filterUnits="userSpaceOnUse" x="315.9" y="213.1" width="23.8" height="51.4">
						<feColorMatrix  type="matrix" values="1 0 0 0 0  0 1 0 0 0  0 0 1 0 0  0 0 0 1 0"/>
					</filter>
				</defs>
				<mask maskUnits="userSpaceOnUse" x="315.9" y="213.1" width="23.8" height="51.4" id="mask-2_7_">
					<g class="st6">
						<path id="path-1_7_" class="st2" d="M6.1,0h517.8c3.4,0,6.1,2.7,6.1,6.1v334.8c0,3.4-2.7,6.1-6.1,6.1H6.1
							c-3.4,0-6.1-2.7-6.1-6.1V6.1C0,2.7,2.7,0,6.1,0z"/>
					</g>
				</mask>
				<path id="Path-2-Copy-4" class="st7" d="M338.3,263c-11.3-10-18-19.1-20.1-27.1c-2.1-8-0.1-15.1,5.9-21.3"/>
				<defs>
					<filter id="Adobe_OpacityMaskFilter_3_" filterUnits="userSpaceOnUse" x="320.8" y="86.6" width="18.8" height="38.8">
						<feColorMatrix  type="matrix" values="1 0 0 0 0  0 1 0 0 0  0 0 1 0 0  0 0 0 1 0"/>
					</filter>
				</defs>
				<mask maskUnits="userSpaceOnUse" x="320.8" y="86.6" width="18.8" height="38.8" id="mask-2_8_">
					<g class="st8">
						<path id="path-1_8_" class="st2" d="M6.1,0h517.8c3.4,0,6.1,2.7,6.1,6.1v334.8c0,3.4-2.7,6.1-6.1,6.1H6.1
							c-3.4,0-6.1-2.7-6.1-6.1V6.1C0,2.7,2.7,0,6.1,0z"/>
					</g>
				</mask>
				<path id="Path-2-Copy-3" class="st9" d="M338.1,88.1c-8.4,5.5-13.5,11.3-15.1,17.3c-1.6,6-0.3,12.2,4,18.5"/>
				<defs>
					<filter id="Adobe_OpacityMaskFilter_4_" filterUnits="userSpaceOnUse" x="186.7" y="212.8" width="23.8" height="51.4">
						<feColorMatrix  type="matrix" values="1 0 0 0 0  0 1 0 0 0  0 0 1 0 0  0 0 0 1 0"/>
					</filter>
				</defs>
				<mask maskUnits="userSpaceOnUse" x="186.7" y="212.8" width="23.8" height="51.4" id="mask-2_9_">
					<g class="st10">
						<path id="path-1_9_" class="st2" d="M6.1,0h517.8c3.4,0,6.1,2.7,6.1,6.1v334.8c0,3.4-2.7,6.1-6.1,6.1H6.1
							c-3.4,0-6.1-2.7-6.1-6.1V6.1C0,2.7,2.7,0,6.1,0z"/>
					</g>
				</mask>
				<path id="Path-2-Copy-2" class="st11" d="M188.2,262.7c11.3-10,18-19.1,20.1-27.1s0.1-15.1-5.9-21.3"/>
				<defs>
					<filter id="Adobe_OpacityMaskFilter_5_" filterUnits="userSpaceOnUse" x="182.2" y="257.8" width="12" height="12">
						<feColorMatrix  type="matrix" values="1 0 0 0 0  0 1 0 0 0  0 0 1 0 0  0 0 0 1 0"/>
					</filter>
				</defs>
				<mask maskUnits="userSpaceOnUse" x="182.2" y="257.8" width="12" height="12" id="mask-2_10_">
					<g class="st12">
						<path id="path-1_10_" class="st2" d="M6.1,0h517.8c3.4,0,6.1,2.7,6.1,6.1v334.8c0,3.4-2.7,6.1-6.1,6.1H6.1
							c-3.4,0-6.1-2.7-6.1-6.1V6.1C0,2.7,2.7,0,6.1,0z"/>
					</g>
				</mask>
				<circle id="Oval-Copy" class="st13" cx="188.2" cy="263.8" r="6"/>
				<defs>
					<filter id="Adobe_OpacityMaskFilter_6_" filterUnits="userSpaceOnUse" x="332.2" y="257.8" width="12" height="12">
						<feColorMatrix  type="matrix" values="1 0 0 0 0  0 1 0 0 0  0 0 1 0 0  0 0 0 1 0"/>
					</filter>
				</defs>
				<mask maskUnits="userSpaceOnUse" x="332.2" y="257.8" width="12" height="12" id="mask-2_11_">
					<g class="st14">
						<path id="path-1_11_" class="st2" d="M6.1,0h517.8c3.4,0,6.1,2.7,6.1,6.1v334.8c0,3.4-2.7,6.1-6.1,6.1H6.1
							c-3.4,0-6.1-2.7-6.1-6.1V6.1C0,2.7,2.7,0,6.1,0z"/>
					</g>
				</mask>
				<circle id="Oval-Copy-2" class="st15" cx="338.2" cy="263.8" r="6"/>
				<defs>
					<filter id="Adobe_OpacityMaskFilter_7_" filterUnits="userSpaceOnUse" x="337.2" y="79.8" width="12" height="11">
						<feColorMatrix  type="matrix" values="1 0 0 0 0  0 1 0 0 0  0 0 1 0 0  0 0 0 1 0"/>
					</filter>
				</defs>
				<mask maskUnits="userSpaceOnUse" x="337.2" y="79.8" width="12" height="11" id="mask-2_12_">
					<g class="st16">
						<path id="path-1_12_" class="st2" d="M6.1,0h517.8c3.4,0,6.1,2.7,6.1,6.1v334.8c0,3.4-2.7,6.1-6.1,6.1H6.1
							c-3.4,0-6.1-2.7-6.1-6.1V6.1C0,2.7,2.7,0,6.1,0z"/>
					</g>
				</mask>
				<ellipse id="Oval-Copy-3" class="st17" cx="343.2" cy="85.3" rx="6" ry="5.5"/>
				<defs>
					<filter id="Adobe_OpacityMaskFilter_8_" filterUnits="userSpaceOnUse" x="176.2" y="77.8" width="12" height="11">
						<feColorMatrix  type="matrix" values="1 0 0 0 0  0 1 0 0 0  0 0 1 0 0  0 0 0 1 0"/>
					</filter>
				</defs>
				<mask maskUnits="userSpaceOnUse" x="176.2" y="77.8" width="12" height="11" id="mask-2_13_">
					<g class="st18">
						<path id="path-1_13_" class="st2" d="M6.1,0h517.8c3.4,0,6.1,2.7,6.1,6.1v334.8c0,3.4-2.7,6.1-6.1,6.1H6.1
							c-3.4,0-6.1-2.7-6.1-6.1V6.1C0,2.7,2.7,0,6.1,0z"/>
					</g>
				</mask>
				<ellipse id="Oval-Copy-4" class="st19" cx="182.2" cy="83.3" rx="6" ry="5.5"/>
				<defs>
					<filter id="Adobe_OpacityMaskFilter_9_" filterUnits="userSpaceOnUse" x="160.2" y="122.8" width="218" height="102">
						<feColorMatrix  type="matrix" values="1 0 0 0 0  0 1 0 0 0  0 0 1 0 0  0 0 0 1 0"/>
					</filter>
				</defs>
				<mask maskUnits="userSpaceOnUse" x="160.2" y="122.8" width="218" height="102" id="mask-2_14_">
					<g class="st20">
						<path id="path-1_14_" class="st2" d="M6.1,0h517.8c3.4,0,6.1,2.7,6.1,6.1v334.8c0,3.4-2.7,6.1-6.1,6.1H6.1
							c-3.4,0-6.1-2.7-6.1-6.1V6.1C0,2.7,2.7,0,6.1,0z"/>
					</g>
				</mask>
				<path id="Fill-1" class="st21" d="M274.5,155c11.2-12,22.1-23.7,37.6-29.4c27.3-10,58.7,7.9,64.9,37.6
					c6.3,30-14.1,57.7-44.4,61.2c-17,2-30.8-5.1-42.5-16c-13.2-12.3-25.1-26-38-38.6c-8.3-8.2-16.7-16.6-26.3-23.1
					c-13.7-9.3-31.6-4.7-40.9,9.1c-9.5,13.9-6.8,32.6,6,42.8c11.9,9.5,26.8,9.7,39.7-0.1c5.6-4.3,10.7-9.4,15.8-14.2
					c1.5-1.4,2.6-3.3,3.6-3.1c4.8,3.8,9.6,7.7,14.5,11.7c-11,11.7-21.6,22.4-36,28.3c-28.6,11.8-61-7.1-67.2-36.4
					c-6.4-30.2,14.4-58.4,44.9-61.6c12.1-1.3,23.1,1.8,32.5,8.9c8.9,6.8,17,14.6,25.1,22.5c15,14.6,28.7,30.6,44.6,43.9
					c21,17.5,47.5,1.8,50.4-20c1.7-12.9-2.9-23.5-13.5-30.9c-10.4-7.1-21.7-8.4-32.4-1c-7.7,5.4-14.6,12-21.5,18.4
					c-3,2.8-4.7,3.7-7.6,0C281.1,161.4,277.8,158.4,274.5,155"/>
			</g>
		</g>
	</g>
</g>
</svg>
