<?xml version="1.0" encoding="UTF-8" standalone="no"?><!DOCTYPE svg PUBLIC "-//W3C//DTD SVG 1.1//EN" "http://www.w3.org/Graphics/SVG/1.1/DTD/svg11.dtd"><svg width="532px" height="349px" viewBox="0 0 532 349" version="1.1" xmlns="http://www.w3.org/2000/svg" xmlns:xlink="http://www.w3.org/1999/xlink" xml:space="preserve" xmlns:serif="http://www.serif.com/" style="fill-rule:evenodd;clip-rule:evenodd;"><g><g id="Group-19"><g id="Video-Player"><g id="Bg"><path d="M299.487,1l78.2,0c1.5,0 2.6,1.2 2.6,2.6l0,148.5c0,1.5 -1.2,2.6 -2.6,2.6l-78.2,0c-1.5,0 -2.6,-1.2 -2.6,-2.6l0,-148.5c0,-1.4 1.2,-2.6 2.6,-2.6Z" style="fill:#fff;stroke:#a9bbc9;stroke-width:0.5px;"/><path id="Bg-Copy" d="M448.887,1l78.2,0c1.5,0 2.6,1.2 2.6,2.6l0,148.5c0,1.5 -1.2,2.6 -2.6,2.6l-78.2,0c-1.5,0 -2.6,-1.2 -2.6,-2.6l0,-148.5c0,-1.4 1.2,-2.6 2.6,-2.6Z" style="fill:#fff;stroke:#a9bbc9;stroke-width:0.5px;"/></g><g id="Shape"><g><path id="Shape-Copy-3" d="M450.69,77.504c0,-1 0.8,-1.8 1.8,-1.8l18.5,0c1,0 1.8,0.8 1.8,1.8l0,11.9c0,1 -0.8,1.8 -1.8,1.8l-18.5,0c-1,0 -1.8,-0.8 -1.8,-1.8l0,-11.9Z" style="fill:#fafafa;stroke:#a9bbc9;stroke-width:0.5px;"/><path id="Shape-Copy-4" d="M460.99,84.804l2.1,-1.6l-2.1,-1.6l0,3.2Zm0.7,-5.1c-2,0 -3.5,1.5 -3.5,3.5c0,2 1.5,3.5 3.5,3.5c2,0 3.5,-1.6 3.5,-3.5c0,-1.9 -1.6,-3.5 -3.5,-3.5Z" style="fill:#fff;stroke:#a9bbc9;stroke-width:0.5px;"/></g><path id="Rectangle-Copy-4" d="M477.056,85.393c0,-0.5 0.4,-0.9 0.9,-0.9l36,0c0.5,0 0.9,0.4 0.9,0.9l0,2.6c0,0.5 -0.4,0.9 -0.9,0.9l-36,0c-0.5,0 -0.9,-0.4 -0.9,-0.9l0,-2.6Z" style="fill:#fff;stroke:#a9bbc9;stroke-width:0.5px;"/><path id="Rectangle-Copy-5" d="M477.056,78.801c0,-0.5 0.4,-0.9 0.9,-0.9l46.6,0c0.5,0 0.9,0.4 0.9,0.9l0,2.6c0,0.5 -0.4,0.9 -0.9,0.9l-46.6,0c-0.5,0 -0.9,-0.4 -0.9,-0.9l0,-2.6Z" style="fill:#fafafa;stroke:#a9bbc9;stroke-width:0.5px;"/></g><g><g><path id="Shape-Copy-5" d="M450.69,77.504c0,-1 0.8,-1.8 1.8,-1.8l18.5,0c1,0 1.8,0.8 1.8,1.8l0,11.9c0,1 -0.8,1.8 -1.8,1.8l-18.5,0c-1,0 -1.8,-0.8 -1.8,-1.8l0,-11.9Z" style="fill:#fafafa;stroke:#a9bbc9;stroke-width:0.5px;"/><path id="Shape-Copy-6" d="M460.99,84.804l2.1,-1.6l-2.1,-1.6l0,3.2Zm0.7,-5.1c-2,0 -3.5,1.5 -3.5,3.5c0,2 1.5,3.5 3.5,3.5c2,0 3.5,-1.6 3.5,-3.5c0,-1.9 -1.6,-3.5 -3.5,-3.5Z" style="fill:#fff;stroke:#a9bbc9;stroke-width:0.5px;"/></g><path id="Rectangle-Copy-6" d="M477.056,85.393c0,-0.5 0.4,-0.9 0.9,-0.9l36,0c0.5,0 0.9,0.4 0.9,0.9l0,2.6c0,0.5 -0.4,0.9 -0.9,0.9l-36,0c-0.5,0 -0.9,-0.4 -0.9,-0.9l0,-2.6Z" style="fill:#fafafa;stroke:#a9bbc9;stroke-width:0.5px;"/><path id="Rectangle-Copy-7" d="M477.056,78.801c0,-0.5 0.4,-0.9 0.9,-0.9l46.6,0c0.5,0 0.9,0.4 0.9,0.9l0,2.6c0,0.5 -0.4,0.9 -0.9,0.9l-46.6,0c-0.5,0 -0.9,-0.4 -0.9,-0.9l0,-2.6Z" style="fill:#fafafa;stroke:#a9bbc9;stroke-width:0.5px;"/></g><g><g><path id="Shape-Copy-7" d="M450.69,97.279c0,-1 0.8,-1.8 1.8,-1.8l18.5,0c1,0 1.8,0.8 1.8,1.8l0,11.9c0,1 -0.8,1.8 -1.8,1.8l-18.5,0c-1,0 -1.8,-0.8 -1.8,-1.8l0,-11.9Z" style="fill:#fafafa;stroke:#a9bbc9;stroke-width:0.5px;"/><path id="Shape-Copy-8" d="M460.99,104.579l2.1,-1.6l-2.1,-1.6l0,3.2Zm0.7,-5.1c-2,0 -3.5,1.5 -3.5,3.5c0,2 1.5,3.5 3.5,3.5c2,0 3.5,-1.6 3.5,-3.5c0,-1.9 -1.6,-3.5 -3.5,-3.5Z" style="fill:#fff;stroke:#a9bbc9;stroke-width:0.5px;"/></g><path id="Rectangle-Copy-8" d="M477.056,105.168c0,-0.5 0.4,-0.9 0.9,-0.9l36,0c0.5,0 0.9,0.4 0.9,0.9l0,2.6c0,0.5 -0.4,0.9 -0.9,0.9l-36,0c-0.5,0 -0.9,-0.4 -0.9,-0.9l0,-2.6Z" style="fill:#fafafa;stroke:#a9bbc9;stroke-width:0.5px;"/><path id="Rectangle-Copy-9" d="M477.056,98.576c0,-0.5 0.4,-0.9 0.9,-0.9l46.6,0c0.5,0 0.9,0.4 0.9,0.9l0,2.6c0,0.5 -0.4,0.9 -0.9,0.9l-46.6,0c-0.5,0 -0.9,-0.4 -0.9,-0.9l0,-2.6Z" style="fill:#fafafa;stroke:#a9bbc9;stroke-width:0.5px;"/></g><g><g><path id="Shape-Copy-9" d="M450.69,117.053c0,-1 0.8,-1.8 1.8,-1.8l18.5,0c1,0 1.8,0.8 1.8,1.8l0,11.9c0,1 -0.8,1.8 -1.8,1.8l-18.5,0c-1,0 -1.8,-0.8 -1.8,-1.8l0,-11.9Z" style="fill:#fafafa;stroke:#a9bbc9;stroke-width:0.5px;"/><path id="Shape-Copy-10" d="M460.99,124.353l2.1,-1.6l-2.1,-1.6l0,3.2Zm0.7,-5.1c-2,0 -3.5,1.5 -3.5,3.5c0,2 1.5,3.5 3.5,3.5c2,0 3.5,-1.6 3.5,-3.5c0,-1.9 -1.6,-3.5 -3.5,-3.5Z" style="fill:#fff;stroke:#a9bbc9;stroke-width:0.5px;"/></g><path id="Rectangle-Copy-10" d="M477.056,124.942c0,-0.5 0.4,-0.9 0.9,-0.9l36,0c0.5,0 0.9,0.4 0.9,0.9l0,2.6c0,0.5 -0.4,0.9 -0.9,0.9l-36,0c-0.5,0 -0.9,-0.4 -0.9,-0.9l0,-2.6Z" style="fill:#fafafa;stroke:#a9bbc9;stroke-width:0.5px;"/><path id="Rectangle-Copy-11" d="M477.056,118.351c0,-0.5 0.4,-0.9 0.9,-0.9l46.6,0c0.5,0 0.9,0.4 0.9,0.9l0,2.6c0,0.5 -0.4,0.9 -0.9,0.9l-46.6,0c-0.5,0 -0.9,-0.4 -0.9,-0.9l0,-2.6Z" style="fill:#fafafa;stroke:#a9bbc9;stroke-width:0.5px;"/></g><g><g><path id="Shape-Copy-11" d="M450.69,136.828c0,-1 0.8,-1.8 1.8,-1.8l18.5,0c1,0 1.8,0.8 1.8,1.8l0,11.9c0,1 -0.8,1.8 -1.8,1.8l-18.5,0c-1,0 -1.8,-0.8 -1.8,-1.8l0,-11.9Z" style="fill:#fafafa;stroke:#a9bbc9;stroke-width:0.5px;"/><path id="Shape-Copy-12" d="M460.99,144.128l2.1,-1.6l-2.1,-1.6l0,3.2Zm0.7,-5.1c-2,0 -3.5,1.5 -3.5,3.5c0,2 1.5,3.5 3.5,3.5c2,0 3.5,-1.6 3.5,-3.5c0,-1.9 -1.6,-3.5 -3.5,-3.5Z" style="fill:#fff;stroke:#a9bbc9;stroke-width:0.5px;"/></g><path id="Rectangle-Copy-12" d="M477.056,144.717c0,-0.5 0.4,-0.9 0.9,-0.9l36,0c0.5,0 0.9,0.4 0.9,0.9l0,2.6c0,0.5 -0.4,0.9 -0.9,0.9l-36,0c-0.5,0 -0.9,-0.4 -0.9,-0.9l0,-2.6Z" style="fill:#fafafa;stroke:#a9bbc9;stroke-width:0.5px;"/><path id="Rectangle-Copy-13" d="M477.056,138.125c0,-0.5 0.4,-0.9 0.9,-0.9l46.6,0c0.5,0 0.9,0.4 0.9,0.9l0,2.6c0,0.5 -0.4,0.9 -0.9,0.9l-46.6,0c-0.5,0 -0.9,-0.4 -0.9,-0.9l0,-2.6Z" style="fill:#fafafa;stroke:#a9bbc9;stroke-width:0.5px;"/></g><g id="Status-Bar"><path id="Combined-Shape" d="M296.887,3.6c0,-1.4 1.2,-2.6 2.6,-2.6l78.2,0c1.5,0 2.6,1.2 2.6,2.6l0,6.2l-83.4,0l0,-6.2Z" style="fill:#fff;stroke:#a9bbc9;stroke-width:0.5px;"/><path id="Combined-Shape-Copy" d="M446.287,3.6c0,-1.5 1.2,-2.6 2.6,-2.6l78.2,0c1.5,0 2.6,1.2 2.6,2.6l0,6.2l-83.5,0l0,-6.2l0.1,0Z" style="fill:#fff;stroke:#a9bbc9;stroke-width:0.5px;"/><path d="M333.987,4.1l9.2,0c0.8,0 1.5,0.7 1.5,1.5c0,0.8 -0.7,1.5 -1.5,1.5l-9.2,0c-0.8,0 -1.5,-0.7 -1.5,-1.5c0,-0.8 0.7,-1.5 1.5,-1.5Z" style="fill:#fff;stroke:#a9bbc9;stroke-width:0.5px;"/><path id="Shape-Copy-13" d="M483.387,4.1l9.2,0c0.8,0 1.5,0.7 1.5,1.5c0,0.8 -0.7,1.5 -1.5,1.5l-9.2,0c-0.8,0 -1.5,-0.7 -1.5,-1.5c0,-0.8 0.7,-1.5 1.5,-1.5Z" style="fill:#fff;stroke:#a9bbc9;stroke-width:0.5px;"/><path d="M370.887,4.1l4.8,0c0.8,0 1.5,0.7 1.5,1.5c0,0.8 -0.7,1.5 -1.5,1.5l-4.8,0c-0.8,0 -1.5,-0.7 -1.5,-1.5c0,-0.8 0.7,-1.5 1.5,-1.5Z" style="fill:#fff;stroke:#a9bbc9;stroke-width:0.5px;"/><path id="Shape-Copy-14" d="M520.387,4.1l4.8,0c0.8,0 1.5,0.7 1.5,1.5c0,0.8 -0.7,1.5 -1.5,1.5l-4.8,0c-0.8,0 -1.5,-0.7 -1.5,-1.5c-0.1,-0.8 0.6,-1.5 1.5,-1.5Z" style="fill:#fff;stroke:#a9bbc9;stroke-width:0.5px;"/><path d="M366.587,4.1c0.8,0 1.5,0.7 1.5,1.5c0,0.8 -0.7,1.5 -1.5,1.5c-0.8,0 -1.5,-0.7 -1.5,-1.5c-0.1,-0.8 0.6,-1.5 1.5,-1.5Z" style="fill:#fff;stroke:#a9bbc9;stroke-width:0.5px;"/><path id="Shape-Copy-15" d="M515.987,4.1c0.8,0 1.5,0.7 1.5,1.5c0,0.8 -0.7,1.5 -1.5,1.5c-0.8,0 -1.5,-0.7 -1.5,-1.5c-0.1,-0.8 0.6,-1.5 1.5,-1.5Z" style="fill:#fff;stroke:#a9bbc9;stroke-width:0.5px;"/><path d="M301.487,4.1c0.8,0 1.5,0.7 1.5,1.5c0,0.8 -0.7,1.5 -1.5,1.5c-0.8,0 -1.5,-0.7 -1.5,-1.5c0,-0.8 0.7,-1.5 1.5,-1.5Z" style="fill:#fff;stroke:#a9bbc9;stroke-width:0.5px;"/><path id="Shape-Copy-16" d="M450.887,4.1c0.8,0 1.5,0.7 1.5,1.5c0,0.8 -0.7,1.5 -1.5,1.5c-0.8,0 -1.5,-0.7 -1.5,-1.5c0,-0.8 0.7,-1.5 1.5,-1.5Z" style="fill:#fff;stroke:#a9bbc9;stroke-width:0.5px;"/><path d="M305.887,4.1c0.8,0 1.5,0.7 1.5,1.5c0,0.8 -0.7,1.5 -1.5,1.5c-0.8,0 -1.5,-0.7 -1.5,-1.5c0,-0.8 0.7,-1.5 1.5,-1.5Z" style="fill:#fff;stroke:#a9bbc9;stroke-width:0.5px;"/><path id="Shape-Copy-17" d="M455.287,4.1c0.8,0 1.5,0.7 1.5,1.5c0,0.8 -0.7,1.5 -1.5,1.5c-0.8,0 -1.5,-0.7 -1.5,-1.5c0,-0.8 0.7,-1.5 1.5,-1.5Z" style="fill:#fff;stroke:#a9bbc9;stroke-width:0.5px;"/><path d="M310.287,4.1c0.8,0 1.5,0.7 1.5,1.5c0,0.8 -0.7,1.5 -1.5,1.5c-0.8,0 -1.5,-0.7 -1.5,-1.5c0,-0.8 0.7,-1.5 1.5,-1.5Z" style="fill:#fff;stroke:#a9bbc9;stroke-width:0.5px;"/><path id="Shape-Copy-18" d="M459.687,4.1c0.8,0 1.5,0.7 1.5,1.5c0,0.8 -0.7,1.5 -1.5,1.5c-0.8,0 -1.5,-0.7 -1.5,-1.5c0,-0.8 0.7,-1.5 1.5,-1.5Z" style="fill:#fff;stroke:#a9bbc9;stroke-width:0.5px;"/></g><g id="Nav-Bar"><rect id="Rectangle" x="296.887" y="9.789" width="83.5" height="13.2" style="fill:#fff;stroke:#a9bbc9;stroke-width:0.5px;"/><rect id="Rectangle-Copy-14" x="446.287" y="9.789" width="83.5" height="13.2" style="fill:#fff;stroke:#a9bbc9;stroke-width:0.5px;"/><path d="M372.587,16.489c-0.1,-0.1 -0.2,-0.3 -0.3,-0.4c-0.1,-0.2 -0.1,-0.3 -0.1,-0.5c0,-0.2 0,-0.3 0.1,-0.5c0.1,-0.2 0.2,-0.3 0.3,-0.4c0.1,-0.1 0.3,-0.2 0.4,-0.3c0.2,-0.1 0.3,-0.1 0.5,-0.1c0.2,0 0.3,0 0.5,0.1c0.2,0.1 0.3,0.2 0.4,0.3c0.1,0.1 0.2,0.3 0.3,0.4c0.1,0.2 0.1,0.3 0.1,0.5c0,0.2 0,0.3 -0.1,0.5c-0.1,0.2 -0.2,0.3 -0.3,0.4c-0.2,0.1 -0.3,0.2 -0.5,0.3c-0.2,0.1 -0.3,0.1 -0.5,0.1c-0.2,0 -0.3,-0.1 -0.4,-0.1c-0.2,-0.1 -0.3,-0.2 -0.4,-0.3Zm-0.8,-2.5c-0.2,0.2 -0.4,0.5 -0.5,0.8c-0.1,0.3 -0.2,0.6 -0.2,0.9c0,0.3 0.1,0.6 0.2,0.9c0.1,0.3 0.3,0.5 0.5,0.8c0.2,0.2 0.4,0.3 0.6,0.4c0.3,0 0.5,0 0.7,0.1l0.7,0c0.2,0 0.5,-0.1 0.7,-0.2l1.4,1.3c0.1,0.1 0.1,0.1 0.2,0.1l0.4,0c0.1,0 0.1,-0.1 0.2,-0.1c0.1,-0.1 0.1,-0.1 0.1,-0.2l0,-0.2l0,-0.2c0,-0.1 -0.1,-0.1 -0.1,-0.2l-1.3,-1.4c0.1,-0.2 0.2,-0.5 0.3,-0.7c0.1,-0.3 0.1,-0.5 0,-0.8c0,-0.3 -0.1,-0.5 -0.2,-0.7c-0.1,-0.2 -0.3,-0.5 -0.5,-0.6c-0.2,-0.2 -0.5,-0.4 -0.8,-0.5c-0.3,-0.1 -0.6,-0.2 -0.9,-0.2c-0.3,0 -0.6,0.1 -0.9,0.2c-0.1,0.1 -0.3,0.3 -0.6,0.5Z" style="fill:#fff;fill-rule:nonzero;stroke:#a9bbc9;stroke-width:0.5px;"/><path id="Shape-Copy-19" d="M521.987,16.489c-0.1,-0.1 -0.2,-0.3 -0.3,-0.4c-0.1,-0.2 -0.1,-0.3 -0.1,-0.5c0,-0.2 0,-0.3 0.1,-0.5c0.1,-0.2 0.2,-0.3 0.3,-0.4c0.1,-0.1 0.3,-0.2 0.4,-0.3c0.2,-0.1 0.3,-0.1 0.5,-0.1c0.2,0 0.3,0 0.5,0.1c0.2,0.1 0.3,0.2 0.4,0.3c0.1,0.1 0.2,0.3 0.3,0.4c0.1,0.1 0.1,0.3 0.1,0.5c0,0.2 0,0.3 -0.1,0.5c-0.1,0.2 -0.2,0.3 -0.3,0.4c-0.1,0.1 -0.3,0.2 -0.4,0.3c-0.2,0.1 -0.3,0.1 -0.5,0.1c-0.2,0 -0.3,0 -0.5,-0.1c-0.2,-0.1 -0.3,-0.2 -0.4,-0.3Zm-0.8,-2.5c-0.2,0.2 -0.4,0.5 -0.5,0.8c-0.1,0.3 -0.2,0.6 -0.2,0.9c0,0.3 0.1,0.6 0.2,0.9c0.1,0.3 0.3,0.5 0.5,0.8c0.2,0.2 0.4,0.3 0.6,0.4c0.2,0.1 0.4,0.2 0.7,0.2l0.7,0c0.2,0 0.5,-0.1 0.7,-0.2l1.3,1.3c0.1,0.1 0.1,0.1 0.2,0.1l0.4,0c0.1,0 0.1,-0.1 0.2,-0.1c0.1,0 0.1,-0.1 0.1,-0.2l0,-0.2l0,-0.2c0,-0.1 -0.1,-0.1 -0.1,-0.2l-1.2,-1.5c0.1,-0.2 0.2,-0.5 0.3,-0.7c0.1,-0.3 0.1,-0.5 0,-0.8c0,-0.3 -0.1,-0.5 -0.2,-0.7c-0.1,-0.2 -0.3,-0.5 -0.5,-0.6c-0.2,-0.2 -0.5,-0.4 -0.8,-0.5c-0.3,-0.1 -0.6,-0.2 -0.9,-0.2c-0.3,0 -0.6,0.1 -0.9,0.2c-0.1,0.1 -0.3,0.3 -0.6,0.5Z" style="fill:#fff;fill-rule:nonzero;stroke:#a9bbc9;stroke-width:0.5px;"/><path d="M305.987,17.589c0.3,0 0.5,0.2 0.6,0.5l0,0.1c0,0.3 -0.3,0.6 -0.6,0.6l-5,0c-0.3,0 -0.6,-0.3 -0.6,-0.6c0,-0.3 0.3,-0.6 0.6,-0.6l5,0Zm0,-1.9c0.3,0 0.5,0.2 0.6,0.5l0,0.1c0,0.3 -0.3,0.5 -0.6,0.5l-5,0c-0.3,0 -0.6,-0.2 -0.6,-0.5c0,-0.3 0.3,-0.6 0.6,-0.6l5,0Zm0,-1.9c0.3,0 0.5,0.2 0.6,0.5l0,0.1c0,0.3 -0.3,0.6 -0.6,0.6l-5,0c-0.3,0 -0.6,-0.3 -0.6,-0.6c0,-0.4 0.3,-0.6 0.6,-0.6l5,0Z" style="fill:#fff;stroke:#a9bbc9;stroke-width:0.5px;"/><path id="Combined-Shape-Copy-2" d="M455.387,17.589c0.3,0 0.5,0.2 0.6,0.5l0,0.1c0,0.3 -0.3,0.6 -0.6,0.6l-5,0c-0.3,0 -0.6,-0.3 -0.6,-0.6c0,-0.3 0.3,-0.6 0.6,-0.6l5,0Zm0,-1.9c0.3,0 0.5,0.2 0.6,0.5l0,0.1c0,0.3 -0.3,0.6 -0.6,0.6l-5,0c-0.3,0 -0.6,-0.3 -0.6,-0.6c0,-0.3 0.3,-0.6 0.6,-0.6l5,0Zm0,-1.9c0.3,0 0.5,0.2 0.6,0.5l0,0.1c0,0.3 -0.3,0.6 -0.6,0.6l-5,0c-0.3,0 -0.6,-0.3 -0.6,-0.6c0,-0.3 0.3,-0.6 0.6,-0.6l5,0Z" style="fill:#fff;stroke:#a9bbc9;stroke-width:0.5px;"/></g><g><path d="M321.056,15.083c0,-0.5 0.4,-0.9 0.9,-0.9l33.4,0c0.5,0 0.9,0.4 0.9,0.9l0,2.6c0,0.5 -0.4,0.9 -0.9,0.9l-33.4,0c-0.5,0 -0.9,-0.4 -0.9,-0.9l0,-2.6Z" style="fill:#fff;stroke:#a9bbc9;stroke-width:0.5px;"/><path id="Rectangle-Copy-15" d="M470.456,15.083c0,-0.5 0.4,-0.9 0.9,-0.9l33.4,0c0.5,0 0.9,0.4 0.9,0.9l0,2.6c0,0.5 -0.4,0.9 -0.9,0.9l-33.4,0c-0.5,0 -0.9,-0.4 -0.9,-0.9l0,-2.6Z" style="fill:#fff;stroke:#a9bbc9;stroke-width:0.5px;"/></g><g><path d="M296.887,55.172l83.5,0l0,48.4l-83.5,0l0,-48.4Z" style="fill:#fafafa;stroke:#a9bbc9;stroke-width:0.5px;"/><path id="Shape-Copy-20" d="M446.287,22.972l83.5,0l0,48.3l-83.5,0l0,-48.3Z" style="fill:#fafafa;stroke:#a9bbc9;stroke-width:0.5px;"/><path d="M296.887,94.772l83.5,0l0,8.8l-83.5,0l0,-8.8Z" style="fill:#fff;stroke:#a9bbc9;stroke-width:0.5px;"/><path id="Shape-Copy-21" d="M446.287,62.472l83.5,0l0,8.8l-83.5,0l0,-8.8Z" style="fill:#fff;stroke:#a9bbc9;stroke-width:0.5px;"/><path d="M337.287,77.972l4,-3l-4,-3l0,6Zm1.3,-9.6c-3.6,0 -6.6,3 -6.6,6.6c0,3.6 3,6.6 6.6,6.6c3.6,0 6.6,-3 6.6,-6.6c0,-3.6 -2.9,-6.6 -6.6,-6.6Z" style="fill:#fff;stroke:#a9bbc9;stroke-width:0.5px;"/><path id="Shape-Copy-22" d="M486.687,45.672l4,-3l-4,-3l0,6Zm1.4,-9.5c-3.6,0 -6.6,3 -6.6,6.6c0,3.6 3,6.6 6.6,6.6c3.6,0 6.6,-3 6.6,-6.6c0,-3.6 -3,-6.6 -6.6,-6.6Z" style="fill:#fff;stroke:#a9bbc9;stroke-width:0.5px;"/></g><g><path id="Line" d="M304.942,99.997l71,0c0.4,0 0.7,-0.3 0.7,-0.7c0,-0.4 -0.3,-0.7 -0.7,-0.7l-71,0c-0.4,0 -0.7,0.3 -0.7,0.7c0,0.4 0.3,0.7 0.7,0.7Z" style="fill:#fafafa;fill-rule:nonzero;stroke:#a9bbc9;stroke-width:0.5px;"/><path id="Line-Copy-3" d="M454.342,67.797l71,0c0.4,0 0.7,-0.3 0.7,-0.7c0,-0.4 -0.3,-0.7 -0.7,-0.7l-71,0c-0.4,0 -0.7,0.3 -0.7,0.7c0,0.4 0.4,0.7 0.7,0.7Z" style="fill:#fafafa;fill-rule:nonzero;stroke:#a9bbc9;stroke-width:0.5px;"/><path d="M301.542,99.997l27.5,0c0.4,0 0.7,-0.3 0.7,-0.7c0,-0.4 -0.3,-0.7 -0.7,-0.7l-27.5,0c-0.4,0 -0.7,0.3 -0.7,0.7c0,0.4 0.4,0.7 0.7,0.7Z" style="fill:#fff;fill-rule:nonzero;stroke:#a9bbc9;stroke-width:0.5px;"/><path id="Line-Copy-4" d="M451.042,67.797l27.5,0c0.4,0 0.7,-0.3 0.7,-0.7c0,-0.4 -0.3,-0.7 -0.7,-0.7l-27.5,0c-0.4,0 -0.7,0.3 -0.7,0.7c0,0.4 0.3,0.7 0.7,0.7Z" style="fill:#fff;fill-rule:nonzero;stroke:#a9bbc9;stroke-width:0.5px;"/><circle cx="329.142" cy="99.397" r="1.5" style="fill:#fff;stroke:#a9bbc9;stroke-width:0.5px;"/><circle id="Shape-Copy-23" cx="478.642" cy="67.097" r="1.5" style="fill:#fff;stroke:#a9bbc9;stroke-width:0.5px;"/></g></g><g><path id="Mask" d="M151.544,1l78.2,0c1.5,0 2.6,1.2 2.6,2.6l0,148.5c0,1.5 -1.2,2.6 -2.6,2.6l-78.2,0c-1.5,0 -2.6,-1.2 -2.6,-2.6l0,-148.5c0,-1.4 1.2,-2.6 2.6,-2.6Z" style="fill:#fff;stroke:#a9bbc9;stroke-width:0.5px;"/><path d="M148.944,22.972l83.5,0l0,65.9l-83.5,0l0,-65.9Z" style="fill:#fafafa;stroke:#a9bbc9;stroke-width:0.5px;"/><path d="M198.58,59.923l0,-12.3c0,-1 -0.8,-1.8 -1.8,-1.8l-12.2,0c-1,0 -1.8,0.8 -1.8,1.8l0,12.3c0,1 0.8,1.8 1.8,1.8l12.3,0c0.9,-0.1 1.7,-0.9 1.7,-1.8Zm-11,-4.9l2.2,2.7l3.1,-4l4,5.3l-12.3,0l3,-4Z" style="fill:#fff;stroke:#a9bbc9;stroke-width:0.5px;"/><g><circle id="Oval" cx="185.899" cy="82.777" r="1.8" style="fill:#fff;stroke:#a9bbc9;stroke-width:0.5px;"/><circle cx="191.099" cy="82.777" r="1.8" style="fill:#fff;stroke:#a9bbc9;stroke-width:0.5px;"/><circle cx="196.399" cy="82.777" r="1.8" style="fill:#fff;stroke:#a9bbc9;stroke-width:0.5px;"/></g><g><path id="Rectangle-" d="M153.338,146.856c0,-0.4 0.4,-0.8 0.9,-0.8l72.9,0c0.5,0 0.9,0.4 0.9,0.9l0,2.6c0,0.5 -0.4,0.9 -0.9,0.9l-72.9,0c-0.5,0 -0.9,-0.4 -0.9,-0.9l0,-2.7Z" style="fill:#fff;stroke:#a9bbc9;stroke-width:0.5px;"/><path d="M153.338,113.956c0,-0.5 0.4,-0.9 0.9,-0.9l72.9,0c0.5,0 0.9,0.4 0.9,0.9l0,2.6c0,0.5 -0.4,0.9 -0.9,0.9l-72.9,0c-0.5,0 -0.9,-0.4 -0.9,-0.9l0,-2.6Z" style="fill:#fff;stroke:#a9bbc9;stroke-width:0.5px;"/><path d="M153.338,120.556c0,-0.5 0.4,-0.9 0.9,-0.9l72.9,0c0.5,0 0.9,0.4 0.9,0.9l0,2.6c0,0.5 -0.4,0.9 -0.9,0.9l-72.9,0c-0.5,0 -0.9,-0.4 -0.9,-0.9l0,-2.6Z" style="fill:#fff;stroke:#a9bbc9;stroke-width:0.5px;"/><path d="M153.338,127.156c0,-0.5 0.4,-0.9 0.9,-0.9l72.9,0c0.5,0 0.9,0.4 0.9,0.9l0,2.6c0,0.5 -0.4,0.9 -0.9,0.9l-72.9,0c-0.5,0 -0.9,-0.4 -0.9,-0.9l0,-2.6Z" style="fill:#fff;stroke:#a9bbc9;stroke-width:0.5px;"/><path d="M153.338,133.756c0,-0.5 0.4,-0.9 0.9,-0.9l72.9,0c0.5,0 0.9,0.4 0.9,0.9l0,2.6c0,0.5 -0.4,0.9 -0.9,0.9l-72.9,0c-0.5,0 -0.9,-0.4 -0.9,-0.9l0,-2.6Z" style="fill:#fff;stroke:#a9bbc9;stroke-width:0.5px;"/><path d="M153.338,140.256c0,-0.5 0.4,-0.9 0.9,-0.9l72.9,0c0.5,0 0.9,0.4 0.9,0.9l0,2.6c0,0.5 -0.4,0.9 -0.9,0.9l-72.9,0c-0.5,0 -0.9,-0.4 -0.9,-0.9l0,-2.6Z" style="fill:#fff;stroke:#a9bbc9;stroke-width:0.5px;"/></g><g><path d="M163.445,96.379c0,-0.5 0.4,-0.9 0.9,-0.9l52.7,0c0.5,0 0.9,0.4 0.9,0.9l0,2.6c0,0.5 -0.4,0.9 -0.9,0.9l-52.7,0c-0.5,0 -0.9,-0.4 -0.9,-0.9l0,-2.6Z" style="fill:#fafafa;stroke:#a9bbc9;stroke-width:0.5px;"/><path d="M170.445,102.979c0,-0.5 0.4,-0.9 0.9,-0.9l38.7,0c0.5,0 0.9,0.4 0.9,0.9l0,2.6c0,0.5 -0.4,0.9 -0.9,0.9l-38.7,0c-0.5,0 -0.9,-0.4 -0.9,-0.9l0,-2.6Z" style="fill:#fafafa;stroke:#a9bbc9;stroke-width:0.5px;"/></g><g><path d="M148.944,9.789l83.5,0l0,13.2l-83.5,0l0,-13.2Z" style="fill:#fff;stroke:#a9bbc9;stroke-width:0.5px;"/><path d="M173.113,15.083c0,-0.5 0.4,-0.9 0.9,-0.9l33.4,0c0.5,0 0.9,0.4 0.9,0.9l0,2.6c0,0.5 -0.4,0.9 -0.9,0.9l-33.4,0c-0.5,0 -0.9,-0.4 -0.9,-0.9l0,-2.6Z" style="fill:#fff;stroke:#a9bbc9;stroke-width:0.5px;"/><path d="M158.044,17.889c0.3,0 0.5,0.2 0.6,0.5l0,0.1c0,0.3 -0.3,0.6 -0.6,0.6l-5,0c-0.3,0 -0.6,-0.3 -0.6,-0.6c0,-0.3 0.3,-0.6 0.6,-0.6l5,0Zm0,-2c0.3,0 0.5,0.2 0.6,0.5l0,0.1c0,0.3 -0.3,0.6 -0.6,0.6l-5,0c-0.3,0 -0.6,-0.3 -0.6,-0.6c0,-0.3 0.3,-0.6 0.6,-0.6l5,0Zm0,-2c0.3,0 0.5,0.2 0.6,0.5l0,0.1c0,0.3 -0.3,0.6 -0.6,0.6l-5,0c-0.3,0 -0.6,-0.3 -0.6,-0.6c0,-0.3 0.3,-0.6 0.6,-0.6l5,0Z" style="fill:#fff;stroke:#a9bbc9;stroke-width:0.5px;"/><path d="M224.644,16.689c-0.1,-0.1 -0.2,-0.3 -0.3,-0.4c-0.1,-0.2 -0.1,-0.3 -0.1,-0.5c0,-0.2 0,-0.3 0.1,-0.5c0.1,-0.2 0.2,-0.3 0.3,-0.4c0.1,-0.1 0.3,-0.2 0.4,-0.3c0.2,-0.1 0.3,-0.1 0.5,-0.1c0.2,0 0.3,0 0.5,0.1c0.2,0.1 0.3,0.2 0.4,0.3c0.1,0.1 0.2,0.3 0.3,0.4c0.1,0.2 0.1,0.3 0.1,0.5c0,0.2 0,0.3 -0.1,0.5c-0.1,0.2 -0.2,0.3 -0.3,0.4c-0.1,0.1 -0.3,0.2 -0.4,0.3c-0.2,0.1 -0.3,0.1 -0.5,0.1c-0.2,0 -0.3,0 -0.5,-0.1c-0.2,0 -0.3,-0.1 -0.4,-0.3Zm-0.8,-2.6c-0.2,0.2 -0.4,0.5 -0.5,0.8c-0.1,0.3 -0.2,0.6 -0.2,0.9c0,0.3 0.1,0.6 0.2,0.9c0.1,0.3 0.3,0.6 0.5,0.8c0.2,0.2 0.4,0.3 0.6,0.4c0.2,0.1 0.4,0.2 0.7,0.2l0.7,0c0.2,0 0.5,-0.1 0.7,-0.2l1.4,1.4c0.1,0.1 0.1,0.1 0.2,0.1l0.4,0c0,0 0.1,-0.1 0.2,-0.1c0.1,-0.1 0.1,-0.1 0.1,-0.2l0,-0.2l0,-0.2c0,-0.1 -0.1,-0.1 -0.1,-0.2l-1.3,-1.4c0.1,-0.2 0.2,-0.5 0.3,-0.7c0.1,-0.3 0.1,-0.5 0,-0.8c0,-0.3 -0.1,-0.5 -0.2,-0.8c-0.1,-0.2 -0.3,-0.5 -0.5,-0.7c-0.2,-0.2 -0.5,-0.4 -0.8,-0.5c-0.3,-0.1 -0.6,-0.2 -0.9,-0.2c-0.3,0 -0.6,0.1 -0.9,0.2c-0.1,0.1 -0.3,0.3 -0.6,0.5Z" style="fill:#fff;fill-rule:nonzero;stroke:#a9bbc9;stroke-width:0.5px;"/></g><g><path d="M148.944,3.6c0,-1.4 1.2,-2.6 2.6,-2.6l78.2,0c1.5,0 2.6,1.2 2.6,2.6l0,6.2l-83.4,0l0,-6.2Z" style="fill:#fff;stroke:#a9bbc9;stroke-width:0.5px;"/><path d="M186.044,4.1l9.2,0c0.8,0 1.5,0.7 1.5,1.5c0,0.8 -0.7,1.5 -1.5,1.5l-9.2,0c-0.8,0 -1.5,-0.7 -1.5,-1.5c0,-0.8 0.7,-1.5 1.5,-1.5Z" style="fill:#fff;stroke:#a9bbc9;stroke-width:0.5px;"/><path d="M222.944,4.1l4.8,0c0.8,0 1.5,0.7 1.5,1.5c0,0.8 -0.7,1.5 -1.5,1.5l-4.8,0c-0.8,0 -1.5,-0.7 -1.5,-1.5c0,-0.8 0.7,-1.5 1.5,-1.5Z" style="fill:#fff;stroke:#a9bbc9;stroke-width:0.5px;"/><path d="M218.644,4.1c0.8,0 1.5,0.7 1.5,1.5c0,0.8 -0.7,1.5 -1.5,1.5c-0.8,0 -1.5,-0.7 -1.5,-1.5c-0.1,-0.8 0.6,-1.5 1.5,-1.5Z" style="fill:#fff;stroke:#a9bbc9;stroke-width:0.5px;"/><path d="M153.544,4.1c0.8,0 1.5,0.7 1.5,1.5c0,0.8 -0.7,1.5 -1.5,1.5c-0.8,0 -1.5,-0.7 -1.5,-1.5c0,-0.8 0.7,-1.5 1.5,-1.5Z" style="fill:#fff;stroke:#a9bbc9;stroke-width:0.5px;"/><path d="M157.944,4.1c0.8,0 1.5,0.7 1.5,1.5c0,0.8 -0.7,1.5 -1.5,1.5c-0.8,0 -1.5,-0.7 -1.5,-1.5c0,-0.8 0.7,-1.5 1.5,-1.5Z" style="fill:#fff;stroke:#a9bbc9;stroke-width:0.5px;"/><path d="M162.344,4.1c0.8,0 1.5,0.7 1.5,1.5c0,0.8 -0.7,1.5 -1.5,1.5c-0.8,0 -1.5,-0.7 -1.5,-1.5c0,-0.8 0.7,-1.5 1.5,-1.5Z" style="fill:#fff;stroke:#a9bbc9;stroke-width:0.5px;"/></g></g><g><path d="M3.6,1l78.2,0c1.5,0 2.6,1.2 2.6,2.6l0,148.5c0,1.5 -1.2,2.6 -2.6,2.6l-78.2,0c-1.5,0 -2.6,-1.2 -2.6,-2.6l0,-148.5c0,-1.4 1.2,-2.6 2.6,-2.6Z" style="fill:#fff;stroke:#a9bbc9;stroke-width:0.5px;"/><g><path d="M44.944,29.166c0,-1 0.8,-1.8 1.8,-1.8l31.6,0c1,0 1.8,0.8 1.8,1.8l0,119.5c0,1 -0.8,1.8 -1.8,1.8l-31.6,0c-1,0 -1.8,-0.8 -1.8,-1.8l0,-119.5Z" style="fill:#fafafa;stroke:#a9bbc9;stroke-width:0.5px;"/><g><path d="M49.338,39.261c0,-0.5 0.4,-0.9 0.9,-0.9l20.5,0c0.5,0 0.9,0.4 0.9,0.9l0,2.6c0,0.5 -0.4,0.9 -0.9,0.9l-20.5,0c-0.5,0 -0.9,-0.4 -0.9,-0.9l0,-2.6Z" style="fill:#fff;stroke:#a9bbc9;stroke-width:0.5px;"/><path d="M49.338,32.661c0,-0.5 0.4,-0.9 0.9,-0.9l11.5,0c0.5,0 0.9,0.4 0.9,0.9l0,2.6c0,0.5 -0.4,0.9 -0.9,0.9l-11.5,0c-0.5,0 -0.9,-0.4 -0.9,-0.9l0,-2.6Z" style="fill:#fff;stroke:#a9bbc9;stroke-width:0.5px;"/><path d="M49.338,142.461c0,-0.5 0.4,-0.9 0.9,-0.9l11.5,0c0.5,0 0.9,0.4 0.9,0.9l0,2.6c0,0.5 -0.4,0.9 -0.9,0.9l-11.5,0c-0.5,0 -0.9,-0.4 -0.9,-0.9l0,-2.6Z" style="fill:#fff;stroke:#a9bbc9;stroke-width:0.5px;"/><path d="M49.338,45.861c0,-0.5 0.4,-0.9 0.9,-0.9l24.3,0c0.5,0 0.9,0.4 0.9,0.9l0,2.6c0,0.5 -0.4,0.9 -0.9,0.9l-24.3,0c-0.5,0 -0.9,-0.4 -0.9,-0.9l0,-2.6Z" style="fill:#fff;stroke:#a9bbc9;stroke-width:0.5px;"/><path d="M49.338,52.461c0,-0.5 0.4,-0.9 0.9,-0.9l17.9,0c0.5,0 0.9,0.4 0.9,0.9l0,2.6c0,0.5 -0.4,0.9 -0.9,0.9l-17.9,0c-0.5,0 -0.9,-0.4 -0.9,-0.9l0,-2.6Z" style="fill:#fff;stroke:#a9bbc9;stroke-width:0.5px;"/></g></g><g><path d="M7.194,91.084l31.6,0c1,0 1.8,0.8 1.8,1.8l0,55.8c0,1 -0.8,1.8 -1.8,1.8l-31.6,0c-1,0 -1.8,-0.8 -1.8,-1.8l0,-55.8c0,-1 0.8,-1.8 1.8,-1.8Z" style="fill:#fafafa;stroke:#a9bbc9;stroke-width:0.5px;"/><g><path d="M9.789,96.379c0,-0.5 0.4,-0.9 0.9,-0.9l15,0c0.5,0 0.9,0.4 0.9,0.9l0,2.6c0,0.5 -0.4,0.9 -0.9,0.9l-15,0c-0.5,0 -0.9,-0.4 -0.9,-0.9l0,-2.6Z" style="fill:#fff;stroke:#a9bbc9;stroke-width:0.5px;"/><path d="M9.789,142.479c0,-0.5 0.4,-0.9 0.9,-0.9l11.4,0c0.5,0 0.9,0.4 0.9,0.9l0,2.6c0,0.5 -0.4,0.9 -0.9,0.9l-11.4,0c-0.5,0 -0.9,-0.4 -0.9,-0.9l0,-2.6Z" style="fill:#fff;stroke:#a9bbc9;stroke-width:0.5px;"/><path d="M9.789,102.979c0,-0.5 0.4,-0.9 0.9,-0.9l22.1,0c0.5,0 0.9,0.4 0.9,0.9l0,2.6c0,0.5 -0.4,0.9 -0.9,0.9l-22.1,0c-0.5,0 -0.9,-0.4 -0.9,-0.9l0,-2.6Z" style="fill:#fff;stroke:#a9bbc9;stroke-width:0.5px;"/><path d="M9.789,109.579c0,-0.5 0.4,-0.9 0.9,-0.9l24.6,0c0.5,0 0.9,0.4 0.9,0.9l0,2.6c0,0.5 -0.4,0.9 -0.9,0.9l-24.6,0c-0.5,0 -0.9,-0.4 -0.9,-0.9l0,-2.6Z" style="fill:#fff;stroke:#a9bbc9;stroke-width:0.5px;"/><path d="M9.789,116.179c0,-0.5 0.4,-0.9 0.9,-0.9l22.1,0c0.5,0 0.9,0.4 0.9,0.9l0,2.6c0,0.5 -0.4,0.9 -0.9,0.9l-22.1,0c-0.5,0 -0.9,-0.4 -0.9,-0.9l0,-2.6Z" style="fill:#fff;stroke:#a9bbc9;stroke-width:0.5px;"/></g></g><g><path d="M7.194,27.366l31.6,0c1,0 1.8,0.8 1.8,1.8l0,55.8c0,1 -0.8,1.8 -1.8,1.8l-31.6,0c-1,0 -1.8,-0.8 -1.8,-1.8l0,-55.8c0,-1 0.8,-1.8 1.8,-1.8Z" style="fill:#fafafa;stroke:#a9bbc9;stroke-width:0.5px;"/><g><path d="M9.789,78.761c0,-0.5 0.4,-0.9 0.9,-0.9l11.4,0c0.5,0 0.9,0.4 0.9,0.9l0,2.6c0,0.5 -0.4,0.9 -0.9,0.9l-11.4,0c-0.5,0 -0.9,-0.4 -0.9,-0.9l0,-2.6Z" style="fill:#fff;stroke:#a9bbc9;stroke-width:0.5px;"/><path d="M9.789,32.661c0,-0.5 0.4,-0.9 0.9,-0.9l15,0c0.5,0 0.9,0.4 0.9,0.9l0,2.6c0,0.5 -0.4,0.9 -0.9,0.9l-15,0c-0.5,0 -0.9,-0.4 -0.9,-0.9l0,-2.6Z" style="fill:#fff;stroke:#a9bbc9;stroke-width:0.5px;"/><path d="M9.789,39.261c0,-0.5 0.4,-0.9 0.9,-0.9l22.1,0c0.5,0 0.9,0.4 0.9,0.9l0,2.6c0,0.5 -0.4,0.9 -0.9,0.9l-22.1,0c-0.5,0 -0.9,-0.4 -0.9,-0.9l0,-2.6Z" style="fill:#fff;stroke:#a9bbc9;stroke-width:0.5px;"/><path d="M9.789,45.861c0,-0.5 0.4,-0.9 0.9,-0.9l24.6,0c0.5,0 0.9,0.4 0.9,0.9l0,2.6c0,0.5 -0.4,0.9 -0.9,0.9l-24.6,0c-0.5,0 -0.9,-0.4 -0.9,-0.9l0,-2.6Z" style="fill:#fff;stroke:#a9bbc9;stroke-width:0.5px;"/><path d="M9.789,52.461c0,-0.5 0.4,-0.9 0.9,-0.9l22.1,0c0.5,0 0.9,0.4 0.9,0.9l0,2.6c0,0.5 -0.4,0.9 -0.9,0.9l-22.1,0c-0.5,0 -0.9,-0.4 -0.9,-0.9l0,-2.6Z" style="fill:#fff;stroke:#a9bbc9;stroke-width:0.5px;"/></g></g><g><path d="M1,9.789l83.5,0l0,13.2l-83.5,0l0,-13.2Z" style="fill:#fff;stroke:#a9bbc9;stroke-width:0.5px;"/><path d="M25.169,15.083c0,-0.5 0.4,-0.9 0.9,-0.9l33.4,0c0.5,0 0.9,0.4 0.9,0.9l0,2.6c0,0.5 -0.4,0.9 -0.9,0.9l-33.4,0c-0.5,0 -0.9,-0.4 -0.9,-0.9l0,-2.6Z" style="fill:#fff;stroke:#a9bbc9;stroke-width:0.5px;"/><path d="M10.1,17.889c0.3,0 0.5,0.2 0.6,0.5l0,0.1c0,0.3 -0.3,0.6 -0.6,0.6l-5,0c-0.3,0 -0.6,-0.3 -0.6,-0.6c0,-0.3 0.3,-0.6 0.6,-0.6l5,0Zm0,-2c0.3,0 0.5,0.2 0.6,0.5l0,0.1c0,0.3 -0.3,0.6 -0.6,0.6l-5,0c-0.3,0 -0.6,-0.3 -0.6,-0.6c0,-0.3 0.3,-0.6 0.6,-0.6l5,0Zm0,-2c0.3,0 0.5,0.2 0.6,0.5l0,0.1c0,0.3 -0.3,0.6 -0.6,0.6l-5,0c-0.3,0 -0.6,-0.3 -0.6,-0.6c0,-0.3 0.3,-0.6 0.6,-0.6l5,0Z" style="fill:#fff;stroke:#a9bbc9;stroke-width:0.5px;"/><path d="M76.7,16.689c-0.1,-0.1 -0.2,-0.3 -0.3,-0.4c-0.1,-0.2 -0.1,-0.3 -0.1,-0.5c0,-0.2 0,-0.3 0.1,-0.5c0.1,-0.2 0.2,-0.3 0.3,-0.4c0.1,-0.1 0.3,-0.2 0.4,-0.3c0.2,-0.1 0.3,-0.1 0.5,-0.1c0.2,0 0.3,0 0.5,0.1c0.2,0.1 0.3,0.2 0.4,0.3c0.1,0.1 0.2,0.3 0.3,0.4c0.1,0.2 0.1,0.3 0.1,0.5c0,0.2 0,0.3 -0.1,0.5c-0.1,0.2 -0.2,0.3 -0.3,0.4c-0.1,0.1 -0.3,0.2 -0.4,0.3c-0.2,0.1 -0.3,0.1 -0.5,0.1c-0.2,0 -0.3,0 -0.5,-0.1c-0.2,0 -0.3,-0.1 -0.4,-0.3Zm-0.8,-2.6c-0.2,0.2 -0.4,0.5 -0.5,0.8c-0.1,0.3 -0.2,0.6 -0.2,0.9c0,0.3 0.1,0.6 0.2,0.9c0.1,0.3 0.3,0.6 0.5,0.8c0.2,0.2 0.4,0.3 0.6,0.4c0.2,0.1 0.4,0.2 0.7,0.2l0.7,0c0.2,0 0.5,-0.1 0.7,-0.2l1.4,1.4c0.1,0.1 0.1,0.1 0.2,0.1l0.4,0c0,0 0.1,-0.1 0.2,-0.1c0.1,-0.1 0.1,-0.1 0.1,-0.2l0,-0.2l0,-0.2c0,-0.1 -0.1,-0.1 -0.1,-0.2l-1.3,-1.4c0.1,-0.2 0.2,-0.5 0.3,-0.7c0.1,-0.3 0.1,-0.5 0,-0.8c0,-0.3 -0.1,-0.5 -0.2,-0.8c-0.1,-0.2 -0.3,-0.5 -0.5,-0.7c-0.2,-0.2 -0.5,-0.4 -0.8,-0.5c-0.3,-0.1 -0.6,-0.2 -0.9,-0.2c-0.3,0 -0.6,0.1 -0.9,0.2c-0.1,0.1 -0.3,0.3 -0.6,0.5Z" style="fill:#fff;fill-rule:nonzero;stroke:#a9bbc9;stroke-width:0.5px;"/></g><g><path d="M1,3.6c0,-1.4 1.2,-2.6 2.6,-2.6l78.2,0c1.5,0 2.6,1.2 2.6,2.6l0,6.2l-83.4,0l0,-6.2Z" style="fill:#fff;stroke:#a9bbc9;stroke-width:0.5px;"/><path d="M38.1,4.1l9.2,0c0.8,0 1.5,0.7 1.5,1.5c0,0.8 -0.7,1.5 -1.5,1.5l-9.2,0c-0.8,0 -1.5,-0.7 -1.5,-1.5c0,-0.8 0.7,-1.5 1.5,-1.5Z" style="fill:#fff;stroke:#a9bbc9;stroke-width:0.5px;"/><path d="M75,4.1l4.8,0c0.8,0 1.5,0.7 1.5,1.5c0,0.8 -0.7,1.5 -1.5,1.5l-4.8,0c-0.8,0 -1.5,-0.7 -1.5,-1.5c0,-0.8 0.7,-1.5 1.5,-1.5Z" style="fill:#fff;stroke:#a9bbc9;stroke-width:0.5px;"/><path d="M70.7,4.1c0.8,0 1.5,0.7 1.5,1.5c0,0.8 -0.7,1.5 -1.5,1.5c-0.8,0 -1.5,-0.7 -1.5,-1.5c-0.1,-0.8 0.6,-1.5 1.5,-1.5Z" style="fill:#fff;stroke:#a9bbc9;stroke-width:0.5px;"/><path d="M5.6,4.1c0.8,0 1.5,0.7 1.5,1.5c0,0.8 -0.7,1.5 -1.5,1.5c-0.8,0 -1.5,-0.7 -1.5,-1.5c0,-0.8 0.7,-1.5 1.5,-1.5Z" style="fill:#fff;stroke:#a9bbc9;stroke-width:0.5px;"/><path d="M10,4.1c0.8,0 1.5,0.7 1.5,1.5c0,0.8 -0.7,1.5 -1.5,1.5c-0.8,0 -1.5,-0.7 -1.5,-1.5c0,-0.8 0.7,-1.5 1.5,-1.5Z" style="fill:#fff;stroke:#a9bbc9;stroke-width:0.5px;"/><path d="M14.4,4.1c0.8,0 1.5,0.7 1.5,1.5c0,0.8 -0.7,1.5 -1.5,1.5c-0.8,0 -1.5,-0.7 -1.5,-1.5c0,-0.8 0.7,-1.5 1.5,-1.5Z" style="fill:#fff;stroke:#a9bbc9;stroke-width:0.5px;"/></g></g><g><g><path d="M299.487,181.901l78.2,0c1.5,0 2.6,1.2 2.6,2.6l0,148.5c0,1.5 -1.2,2.6 -2.6,2.6l-78.2,0c-1.5,0 -2.6,-1.2 -2.6,-2.6l0,-148.5c0,-1.4 1.2,-2.6 2.6,-2.6Z" style="fill:#fff;stroke:#a9bbc9;stroke-width:0.5px;"/><path id="Rectangle-Copy-16" d="M448.887,181.901l78.2,0c1.5,0 2.6,1.2 2.6,2.6l0,148.5c0,1.5 -1.2,2.6 -2.6,2.6l-78.2,0c-1.5,0 -2.6,-1.2 -2.6,-2.6l0,-148.5c0,-1.4 1.2,-2.6 2.6,-2.6Z" style="fill:#fff;stroke:#a9bbc9;stroke-width:0.5px;"/><path d="M296.887,203.001l83.5,0l0,130.1c0,1.5 -1.2,2.6 -2.6,2.6l-78.3,0c-1.5,0 -2.6,-1.2 -2.6,-2.6l0,-130.1Z" style="fill:#fff;stroke:#a9bbc9;stroke-width:0.5px;"/><path id="Rectangle-Copy-17" d="M446.287,203.001l83.5,0l0,130.1c0,1.5 -1.2,2.6 -2.6,2.6l-78.3,0c-1.5,0 -2.6,-1.2 -2.6,-2.6l0,-130.1Z" style="fill:#fff;stroke:#a9bbc9;stroke-width:0.5px;"/></g><g><path id="Rectangle-Copy-19" d="M450.69,210.068c0,-1 0.8,-1.8 1.8,-1.8l71.2,0c1,0 1.8,0.8 1.8,1.8l0,55.8c0,1 -0.8,1.8 -1.8,1.8l-71.2,0c-1,0 -1.8,-0.8 -1.8,-1.8l0,-55.8Z" style="fill:#fafafa;stroke:#a9bbc9;stroke-width:0.5px;"/><path id="Shape-Copy-24" d="M494.19,227.168l0,-8.9c0,-0.7 -0.6,-1.3 -1.3,-1.3l-8.9,0c-0.7,0 -1.3,0.6 -1.3,1.3l0,8.9c0,0.7 0.6,1.3 1.3,1.3l8.9,0c0.7,0 1.3,-0.6 1.3,-1.3Zm-7.9,-3.4l1.6,1.9l2.2,-2.9l2.9,3.8l-8.9,0l2.2,-2.8Z" style="fill:#fff;stroke:#a9bbc9;stroke-width:0.5px;"/><g><g><path id="Rectangle--Copy" d="M470.749,239.937c0,-0.5 0.4,-0.9 0.9,-0.9l32.7,0c0.5,0 0.9,0.4 0.9,0.9l0,2.6c0,0.5 -0.4,0.9 -0.9,0.9l-32.8,0c-0.5,0 -0.9,-0.4 -0.9,-0.9l0,-2.6l0.1,0Z" style="fill:#fff;stroke:#a9bbc9;stroke-width:0.5px;"/><path id="Rectangle--Copy-2" d="M466.949,233.337c0,-0.5 0.4,-0.9 0.9,-0.9l40.4,0c0.5,0 0.9,0.4 0.9,0.9l0,2.6c0,0.5 -0.4,0.9 -0.9,0.9l-40.4,0c-0.5,0 -0.9,-0.4 -0.9,-0.9l0,-2.6Z" style="fill:#fff;stroke:#a9bbc9;stroke-width:0.5px;"/></g><path id="Button-Copy" d="M474.859,249.617c0,-1 0.8,-1.8 1.8,-1.8l22.9,0c1,0 1.8,0.8 1.8,1.8l0,7.5c0,1 -0.8,1.8 -1.8,1.8l-22.9,0c-1,-0.1 -1.8,-0.9 -1.8,-1.9l0,-7.4Z" style="fill:#fafafa;stroke:#a9bbc9;stroke-width:0.5px;"/></g></g><g><path d="M301.282,229.11c0,-1 0.8,-1.8 1.8,-1.8l71.2,0c1,0 1.8,0.8 1.8,1.8l0,55.8c0,1 -0.8,1.8 -1.8,1.8l-71.2,0c-1,0 -1.8,-0.8 -1.8,-1.8l0,-55.8Z" style="fill:#fff;stroke:#a9bbc9;stroke-width:0.5px;"/><path id="Rectangle-Copy-20" d="M450.682,273.71c0,-1 0.8,-1.8 1.8,-1.8l71.2,0c1,0 1.8,0.8 1.8,1.8l0,55.8c0,1 -0.8,1.8 -1.8,1.8l-71.2,0c-1,0 -1.8,-0.8 -1.8,-1.8l0,-55.8Z" style="fill:#fff;stroke:#a9bbc9;stroke-width:0.5px;"/><path d="M344.782,246.21l0,-8.9c0,-0.7 -0.6,-1.3 -1.3,-1.3l-8.9,0c-0.7,0 -1.3,0.6 -1.3,1.3l0,8.9c0,0.7 0.6,1.3 1.3,1.3l8.9,0c0.7,0 1.3,-0.6 1.3,-1.3Zm-7.9,-3.4l1.6,1.9l2.2,-2.9l2.9,3.8l-8.9,0l2.2,-2.8Z" style="fill:#fff;stroke:#a9bbc9;stroke-width:0.5px;"/><path id="Shape-Copy-25" d="M494.182,290.91l0,-8.9c0,-0.7 -0.6,-1.3 -1.3,-1.3l-8.9,0c-0.7,0 -1.3,0.6 -1.3,1.3l0,8.9c0,0.7 0.6,1.3 1.3,1.3l8.9,0c0.7,0 1.3,-0.6 1.3,-1.3Zm-7.9,-3.5l1.6,1.9l2.2,-2.9l2.9,3.8l-8.9,0l2.2,-2.8Z" style="fill:#fff;stroke:#a9bbc9;stroke-width:0.5px;"/><g><g><path d="M321.341,258.979c0,-0.5 0.4,-0.9 0.9,-0.9l32.7,0c0.5,0 0.9,0.4 0.9,0.9l0,2.6c0,0.5 -0.4,0.9 -0.9,0.9l-32.8,0c-0.5,0 -0.9,-0.4 -0.9,-0.9l0,-2.6l0.1,0Z" style="fill:#fafafa;stroke:#a9bbc9;stroke-width:0.5px;"/><path id="Rectangle--Copy-3" d="M470.741,303.579c0,-0.5 0.4,-0.9 0.9,-0.9l32.7,0c0.5,0 0.9,0.4 0.9,0.9l0,2.6c0,0.5 -0.4,0.9 -0.9,0.9l-32.7,0c-0.5,0 -0.9,-0.4 -0.9,-0.9l0,-2.6Z" style="fill:#fafafa;stroke:#a9bbc9;stroke-width:0.5px;"/><path d="M317.541,252.379c0,-0.5 0.4,-0.9 0.9,-0.9l40.4,0c0.5,0 0.9,0.4 0.9,0.9l0,2.6c0,0.5 -0.4,0.9 -0.9,0.9l-40.4,0c-0.5,0 -0.9,-0.4 -0.9,-0.9l0,-2.6Z" style="fill:#fafafa;stroke:#a9bbc9;stroke-width:0.5px;"/><path id="Rectangle--Copy-4" d="M466.941,297.079c0,-0.5 0.4,-0.9 0.9,-0.9l40.4,0c0.5,0 0.9,0.4 0.9,0.9l0,2.6c0,0.5 -0.4,0.9 -0.9,0.9l-40.4,0c-0.5,0 -0.9,-0.4 -0.9,-0.9l0,-2.6Z" style="fill:#fafafa;stroke:#a9bbc9;stroke-width:0.5px;"/></g><g><path d="M325.451,268.659c0,-1 0.8,-1.8 1.8,-1.8l22.9,0c1,0 1.8,0.8 1.8,1.8l0,7.5c0,1 -0.8,1.8 -1.8,1.8l-22.9,0c-1,-0.1 -1.8,-0.9 -1.8,-1.9l0,-7.4Z" style="fill:#fafafa;stroke:#a9bbc9;stroke-width:0.5px;"/><path id="Button-Copy-2" d="M474.851,313.259c0,-1 0.8,-1.8 1.8,-1.8l22.8,0c1,0 1.8,0.8 1.8,1.8l0,7.5c0,1 -0.8,1.8 -1.8,1.8l-22.9,0c-1,0 -1.8,-0.8 -1.8,-1.8l0,-7.5l0.1,0Z" style="fill:#fafafa;stroke:#a9bbc9;stroke-width:0.5px;"/></g></g></g><g><path d="M296.887,190.69l83.5,0l0,13.2l-83.5,0l0,-13.2Z" style="fill:#fff;stroke:#a9bbc9;stroke-width:0.5px;"/><path id="Rectangle-Copy-21" d="M446.287,190.69l83.5,0l0,13.2l-83.5,0l0,-13.2Z" style="fill:#fff;stroke:#a9bbc9;stroke-width:0.5px;"/><g><path d="M321.056,195.984c0,-0.5 0.4,-0.9 0.9,-0.9l33.4,0c0.5,0 0.9,0.4 0.9,0.9l0,2.6c0,0.5 -0.4,0.9 -0.9,0.9l-33.4,0c-0.5,0 -0.9,-0.4 -0.9,-0.9l0,-2.6Z" style="fill:#fff;stroke:#a9bbc9;stroke-width:0.5px;"/><path id="Rectangle-Copy-22" d="M470.456,195.984c0,-0.5 0.4,-0.9 0.9,-0.9l33.4,0c0.5,0 0.9,0.4 0.9,0.9l0,2.6c0,0.5 -0.4,0.9 -0.9,0.9l-33.4,0c-0.5,0 -0.9,-0.4 -0.9,-0.9l0,-2.6Z" style="fill:#fff;stroke:#a9bbc9;stroke-width:0.5px;"/></g><path d="M305.987,198.79c0.3,0 0.5,0.2 0.6,0.5l0,0.1c0,0.3 -0.3,0.6 -0.6,0.6l-5,0c-0.3,0 -0.6,-0.3 -0.6,-0.6c0,-0.3 0.3,-0.6 0.6,-0.6l5,0Zm0,-2c0.3,0 0.5,0.2 0.6,0.5l0,0.1c0,0.3 -0.3,0.6 -0.6,0.6l-5,0c-0.3,0 -0.6,-0.3 -0.6,-0.6c0,-0.3 0.3,-0.6 0.6,-0.6l5,0Zm0,-2c0.3,0 0.5,0.2 0.6,0.5l0,0.1c0,0.3 -0.3,0.6 -0.6,0.6l-5,0c-0.3,0 -0.6,-0.3 -0.6,-0.6c0,-0.3 0.3,-0.6 0.6,-0.6l5,0Z" style="fill:#fff;stroke:#a9bbc9;stroke-width:0.5px;"/><path id="Combined-Shape-Copy-3" d="M455.387,198.79c0.3,0 0.5,0.2 0.6,0.5l0,0.1c0,0.3 -0.3,0.6 -0.6,0.6l-5,0c-0.3,0 -0.6,-0.3 -0.6,-0.6c0,-0.3 0.3,-0.6 0.6,-0.6l5,0Zm0,-2c0.3,0 0.5,0.2 0.6,0.5l0,0.1c0,0.3 -0.3,0.6 -0.6,0.6l-5,0c-0.3,0 -0.6,-0.3 -0.6,-0.6c0,-0.3 0.3,-0.6 0.6,-0.6l5,0Zm0,-2c0.3,0 0.5,0.2 0.6,0.5l0,0.1c0,0.3 -0.3,0.6 -0.6,0.6l-5,0c-0.3,0 -0.6,-0.3 -0.6,-0.6c0,-0.3 0.3,-0.6 0.6,-0.6l5,0Z" style="fill:#fff;stroke:#a9bbc9;stroke-width:0.5px;"/><path d="M372.587,197.59c-0.1,-0.1 -0.2,-0.3 -0.3,-0.4c-0.1,-0.2 -0.1,-0.3 -0.1,-0.5c0,-0.2 0,-0.3 0.1,-0.5c0.1,-0.2 0.2,-0.3 0.3,-0.4c0.1,-0.1 0.3,-0.2 0.4,-0.3c0.2,-0.1 0.3,-0.1 0.5,-0.1c0.2,0 0.3,0 0.5,0.1c0.2,0.1 0.3,0.2 0.4,0.3c0.1,0.1 0.2,0.3 0.3,0.4c0.1,0.2 0.1,0.3 0.1,0.5c0,0.2 0,0.3 -0.1,0.5c-0.1,0.2 -0.2,0.3 -0.3,0.4c-0.1,0.1 -0.3,0.2 -0.4,0.3c-0.2,0.1 -0.3,0.1 -0.5,0.1c-0.2,0 -0.3,0 -0.5,-0.1c-0.2,0 -0.3,-0.1 -0.4,-0.3Zm-0.8,-2.6c-0.2,0.2 -0.4,0.5 -0.5,0.8c-0.1,0.3 -0.2,0.6 -0.2,0.9c0,0.3 0.1,0.6 0.2,0.9c0.1,0.3 0.3,0.6 0.5,0.8c0.2,0.2 0.4,0.3 0.6,0.4c0.2,0.1 0.4,0.2 0.7,0.2l0.7,0c0.2,0 0.5,-0.1 0.7,-0.2l1.4,1.4c0.1,0.1 0.1,0.1 0.2,0.1l0.4,0c0,0 0.1,-0.1 0.2,-0.1c0.1,-0.1 0.1,-0.1 0.1,-0.2l0,-0.2l0,-0.2c0,-0.1 -0.1,-0.1 -0.1,-0.2l-1.3,-1.4c0.1,-0.2 0.2,-0.5 0.3,-0.7c0.1,-0.3 0.1,-0.5 0,-0.8c0,-0.3 -0.1,-0.5 -0.2,-0.8c-0.1,-0.2 -0.3,-0.5 -0.5,-0.7c-0.2,-0.2 -0.5,-0.4 -0.8,-0.5c-0.3,-0.1 -0.6,-0.2 -0.9,-0.2c-0.3,0 -0.6,0.1 -0.9,0.2c-0.1,0.1 -0.3,0.3 -0.6,0.5Z" style="fill:#fff;fill-rule:nonzero;stroke:#a9bbc9;stroke-width:0.5px;"/><path id="Shape-Copy-26" d="M521.987,197.59c-0.1,-0.1 -0.2,-0.3 -0.3,-0.4c-0.1,-0.2 -0.1,-0.3 -0.1,-0.5c0,-0.2 0,-0.3 0.1,-0.5c0.1,-0.2 0.2,-0.3 0.3,-0.4c0.1,-0.1 0.3,-0.2 0.4,-0.3c0.2,-0.1 0.3,-0.1 0.5,-0.1c0.2,0 0.3,0 0.5,0.1c0.2,0.1 0.3,0.2 0.4,0.3c0.1,0.1 0.2,0.3 0.3,0.4c0.1,0.1 0.1,0.3 0.1,0.5c0,0.2 0,0.3 -0.1,0.5c-0.1,0.2 -0.2,0.3 -0.3,0.4c-0.1,0.1 -0.3,0.2 -0.4,0.3c-0.2,0.1 -0.3,0.1 -0.5,0.1c-0.2,0 -0.3,0 -0.5,-0.1c-0.2,0 -0.3,-0.1 -0.4,-0.3Zm-0.8,-2.6c-0.2,0.2 -0.4,0.5 -0.5,0.8c-0.1,0.3 -0.2,0.6 -0.2,0.9c0,0.3 0.1,0.6 0.2,0.9c0.1,0.3 0.3,0.6 0.5,0.8c0.2,0.2 0.4,0.3 0.6,0.4c0.2,0.1 0.4,0.2 0.7,0.2l0.7,0c0.2,0 0.5,-0.1 0.7,-0.2l1.3,1.4c0.1,0.1 0.1,0.1 0.2,0.1l0.4,0c0.1,0 0.1,-0.1 0.2,-0.1c0.1,-0.1 0.1,-0.1 0.1,-0.2l0,-0.2l0,-0.2c0,-0.1 -0.1,-0.1 -0.1,-0.2l-1.3,-1.4c0.1,-0.2 0.2,-0.5 0.3,-0.7c0.1,-0.3 0.1,-0.5 0,-0.8c0,-0.3 -0.1,-0.5 -0.2,-0.8c-0.1,-0.2 -0.3,-0.5 -0.5,-0.7c-0.2,-0.2 -0.5,-0.4 -0.8,-0.5c-0.3,-0.1 -0.6,-0.2 -0.9,-0.2c-0.3,0 -0.6,0.1 -0.9,0.2c0,0.1 -0.2,0.3 -0.5,0.5Z" style="fill:#fff;fill-rule:nonzero;stroke:#a9bbc9;stroke-width:0.5px;"/></g><g><path d="M296.887,184.501c0,-1.4 1.2,-2.6 2.6,-2.6l78.2,0c1.5,0 2.6,1.2 2.6,2.6l0,6.2l-83.4,0l0,-6.2Z" style="fill:#fff;stroke:#a9bbc9;stroke-width:0.5px;"/><path id="Combined-Shape-Copy-4" d="M446.287,184.501c0,-1.5 1.2,-2.6 2.6,-2.6l78.2,0c1.5,0 2.6,1.2 2.6,2.6l0,6.2l-83.5,0l0,-6.2l0.1,0Z" style="fill:#fff;stroke:#a9bbc9;stroke-width:0.5px;"/><path d="M333.987,185.001l9.2,0c0.8,0 1.5,0.7 1.5,1.5c0,0.8 -0.7,1.5 -1.5,1.5l-9.2,0c-0.8,0 -1.5,-0.7 -1.5,-1.5c0,-0.8 0.7,-1.5 1.5,-1.5Z" style="fill:#fff;stroke:#a9bbc9;stroke-width:0.5px;"/><path id="Shape-Copy-27" d="M483.387,185.001l9.2,0c0.8,0 1.5,0.7 1.5,1.5c0,0.8 -0.7,1.5 -1.5,1.5l-9.2,0c-0.8,0 -1.5,-0.7 -1.5,-1.5c0,-0.8 0.7,-1.5 1.5,-1.5Z" style="fill:#fff;stroke:#a9bbc9;stroke-width:0.5px;"/><path d="M370.887,185.001l4.8,0c0.8,0 1.5,0.7 1.5,1.5c0,0.8 -0.7,1.5 -1.5,1.5l-4.8,0c-0.8,0 -1.5,-0.7 -1.5,-1.5c0,-0.8 0.7,-1.5 1.5,-1.5Z" style="fill:#fff;stroke:#a9bbc9;stroke-width:0.5px;"/><path id="Shape-Copy-28" d="M520.387,185.001l4.8,0c0.8,0 1.5,0.7 1.5,1.5c0,0.8 -0.7,1.5 -1.5,1.5l-4.8,0c-0.8,0 -1.5,-0.7 -1.5,-1.5c-0.1,-0.8 0.6,-1.5 1.5,-1.5Z" style="fill:#fff;stroke:#a9bbc9;stroke-width:0.5px;"/><path d="M366.587,185.001c0.8,0 1.5,0.7 1.5,1.5c0,0.8 -0.7,1.5 -1.5,1.5c-0.8,0 -1.5,-0.7 -1.5,-1.5c-0.1,-0.8 0.6,-1.5 1.5,-1.5Z" style="fill:#fff;stroke:#a9bbc9;stroke-width:0.5px;"/><path id="Shape-Copy-29" d="M515.987,185.001c0.8,0 1.5,0.7 1.5,1.5c0,0.8 -0.7,1.5 -1.5,1.5c-0.8,0 -1.5,-0.7 -1.5,-1.5c-0.1,-0.8 0.6,-1.5 1.5,-1.5Z" style="fill:#fff;stroke:#a9bbc9;stroke-width:0.5px;"/><path d="M301.487,185.001c0.8,0 1.5,0.7 1.5,1.5c0,0.8 -0.7,1.5 -1.5,1.5c-0.8,0 -1.5,-0.7 -1.5,-1.5c0,-0.8 0.7,-1.5 1.5,-1.5Z" style="fill:#fff;stroke:#a9bbc9;stroke-width:0.5px;"/><path id="Shape-Copy-30" d="M450.887,185.001c0.8,0 1.5,0.7 1.5,1.5c0,0.8 -0.7,1.5 -1.5,1.5c-0.8,0 -1.5,-0.7 -1.5,-1.5c0,-0.8 0.7,-1.5 1.5,-1.5Z" style="fill:#fff;stroke:#a9bbc9;stroke-width:0.5px;"/><path d="M305.887,185.001c0.8,0 1.5,0.7 1.5,1.5c0,0.8 -0.7,1.5 -1.5,1.5c-0.8,0 -1.5,-0.7 -1.5,-1.5c0,-0.8 0.7,-1.5 1.5,-1.5Z" style="fill:#fff;stroke:#a9bbc9;stroke-width:0.5px;"/><path id="Shape-Copy-31" d="M455.287,185.001c0.8,0 1.5,0.7 1.5,1.5c0,0.8 -0.7,1.5 -1.5,1.5c-0.8,0 -1.5,-0.7 -1.5,-1.5c0,-0.8 0.7,-1.5 1.5,-1.5Z" style="fill:#fff;stroke:#a9bbc9;stroke-width:0.5px;"/><path d="M310.287,185.001c0.8,0 1.5,0.7 1.5,1.5c0,0.8 -0.7,1.5 -1.5,1.5c-0.8,0 -1.5,-0.7 -1.5,-1.5c0,-0.8 0.7,-1.5 1.5,-1.5Z" style="fill:#fff;stroke:#a9bbc9;stroke-width:0.5px;"/><path id="Shape-Copy-32" d="M459.687,185.001c0.8,0 1.5,0.7 1.5,1.5c0,0.8 -0.7,1.5 -1.5,1.5c-0.8,0 -1.5,-0.7 -1.5,-1.5c0,-0.8 0.7,-1.5 1.5,-1.5Z" style="fill:#fff;stroke:#a9bbc9;stroke-width:0.5px;"/></g></g><g><g><path d="M148.944,295.237l0,-110.736c0,-1.4 1.2,-2.6 2.6,-2.6l78.2,0c1.5,0 2.6,1.2 2.6,2.6l0,117.553c-0.521,2.274 -0.923,2.69 -4.1,-0.553c-4.9,-5 -5.3,-22.2 -14,-20.8c-8.7,1.3 -8.5,34.7 -16.8,34.7c-8.3,0 -11.6,-21.6 -19.5,-21.6c-7.9,0 -10.2,6.6 -16,7.7c-3.806,0.656 -9.549,-3.38 -13,-6.264Z" style="fill:#fff;stroke:#a9bbc9;stroke-width:0.5px;"/><path d="M148.944,295.237c3.451,2.884 9.194,6.92 13,6.264c5.8,-1.1 8.1,-7.7 16,-7.7c7.9,0 11.2,21.6 19.5,21.6c8.3,0 8.1,-33.4 16.8,-34.7c8.7,-1.4 9.1,15.8 14,20.8c3.177,3.243 3.579,2.827 4.1,0.553l0,30.947c0,1.472 -1.156,2.559 -2.6,2.6l-78.2,0c-1.5,0 -2.6,-1.2 -2.6,-2.6l0,-37.764Z" style="fill:#fafafa;stroke:#a9bbc9;stroke-width:0.5px;"/><path d="M148.944,184.501c0,-1.4 1.2,-2.6 2.6,-2.6l78.2,0c1.5,0 2.6,1.2 2.6,2.6l0,75.1l-83.4,0l0,-75.1Z" style="fill:#fafafa;stroke:#a9bbc9;stroke-width:0.5px;"/></g><g><path d="M221.038,264.976c0,-0.5 0.4,-0.9 0.9,-0.9l5.3,0c0.5,0 0.9,0.4 0.9,0.9l0,2.6c0,0.5 -0.4,0.9 -0.9,0.9l-5.3,0c-0.5,0 -0.9,-0.4 -0.9,-0.9l0,-2.6Z" style="fill:#fafafa;stroke:#a9bbc9;stroke-width:0.5px;"/><path d="M221.038,271.576c0,-0.5 0.4,-0.9 0.9,-0.9l5.3,0c0.5,0 0.9,0.4 0.9,0.9l0,2.6c0,0.5 -0.4,0.9 -0.9,0.9l-5.3,0c-0.5,0 -0.9,-0.4 -0.9,-0.9l0,-2.6Z" style="fill:#fff;stroke:#a9bbc9;stroke-width:0.5px;"/><path d="M153.338,264.976c0,-0.5 0.4,-0.9 0.9,-0.9l32.1,0c0.5,0 0.9,0.4 0.9,0.9l0,2.6c0,0.5 -0.4,0.9 -0.9,0.9l-32.1,0c-0.5,0 -0.9,-0.4 -0.9,-0.9l0,-2.6Z" style="fill:#fafafa;stroke:#a9bbc9;stroke-width:0.5px;"/><path d="M153.338,271.576c0,-0.5 0.4,-0.9 0.9,-0.9l20.2,0c0.5,0 0.9,0.4 0.9,0.9l0,2.6c0,0.5 -0.4,0.9 -0.9,0.9l-20.2,0c-0.5,0 -0.9,-0.4 -0.9,-0.9l0,-2.6Z" style="fill:#fff;stroke:#a9bbc9;stroke-width:0.5px;"/></g><circle cx="177.244" cy="294.201" r="2.4" style="fill:#2d4ef5;"/><path d="M190.704,211.344c-6.1,0 -11,4.9 -11,11c0,6.1 4.9,11 11,11c6.1,0 11,-4.9 11,-11c0,-6.1 -4.9,-11 -11,-11Zm0,3.3c1.8,0 3.3,1.5 3.3,3.3c0,1.8 -1.5,3.3 -3.3,3.3c-1.8,0 -3.3,-1.5 -3.3,-3.3c0,-1.8 1.5,-3.3 3.3,-3.3Zm0,15.6c-2.7,0 -5.2,-1.4 -6.6,-3.5c0,-2.2 4.4,-3.4 6.6,-3.4c2.2,0 6.6,1.2 6.6,3.4c-1.4,2.1 -3.9,3.5 -6.6,3.5Z" style="fill:#fff;stroke:#a9bbc9;stroke-width:0.5px;"/><g><path d="M173.552,245.21c0,-0.5 0.4,-0.9 0.9,-0.9l33.1,0c0.5,0 0.9,0.4 0.9,0.9l0,2.6c0,0.5 -0.4,0.9 -0.9,0.9l-33.1,0c-0.5,0 -0.9,-0.4 -0.9,-0.9l0,-2.6Z" style="fill:#fff;stroke:#a9bbc9;stroke-width:0.5px;"/><path d="M179.752,238.61c0,-0.5 0.3,-0.9 0.8,-0.9l20.4,0c0.5,0 0.9,0.4 0.9,0.9l0,2.6c0,0.5 -0.4,0.9 -0.9,0.9l-20.4,0c-0.5,0 -0.8,-0.4 -0.8,-0.9l0,-2.6Z" style="fill:#fff;stroke:#a9bbc9;stroke-width:0.5px;"/></g><g><path d="M148.944,184.501c0,-1.4 1.2,-2.6 2.6,-2.6l78.2,0c1.5,0 2.6,1.2 2.6,2.6l0,6.2l-83.4,0l0,-6.2Z" style="fill:#fff;stroke:#a9bbc9;stroke-width:0.5px;"/><path d="M186.044,185.001l9.2,0c0.8,0 1.5,0.7 1.5,1.5c0,0.8 -0.7,1.5 -1.5,1.5l-9.2,0c-0.8,0 -1.5,-0.7 -1.5,-1.5c0,-0.8 0.7,-1.5 1.5,-1.5Z" style="fill:#fff;stroke:#a9bbc9;stroke-width:0.5px;"/><path d="M222.944,185.001l4.8,0c0.8,0 1.5,0.7 1.5,1.5c0,0.8 -0.7,1.5 -1.5,1.5l-4.8,0c-0.8,0 -1.5,-0.7 -1.5,-1.5c0,-0.8 0.7,-1.5 1.5,-1.5Z" style="fill:#fff;stroke:#a9bbc9;stroke-width:0.5px;"/><path d="M218.644,185.001c0.8,0 1.5,0.7 1.5,1.5c0,0.8 -0.7,1.5 -1.5,1.5c-0.8,0 -1.5,-0.7 -1.5,-1.5c-0.1,-0.8 0.6,-1.5 1.5,-1.5Z" style="fill:#fff;stroke:#a9bbc9;stroke-width:0.5px;"/><path d="M153.544,185.001c0.8,0 1.5,0.7 1.5,1.5c0,0.8 -0.7,1.5 -1.5,1.5c-0.8,0 -1.5,-0.7 -1.5,-1.5c0,-0.8 0.7,-1.5 1.5,-1.5Z" style="fill:#fff;stroke:#a9bbc9;stroke-width:0.5px;"/><path d="M157.944,185.001c0.8,0 1.5,0.7 1.5,1.5c0,0.8 -0.7,1.5 -1.5,1.5c-0.8,0 -1.5,-0.7 -1.5,-1.5c0,-0.8 0.7,-1.5 1.5,-1.5Z" style="fill:#fff;stroke:#a9bbc9;stroke-width:0.5px;"/><path d="M162.344,185.001c0.8,0 1.5,0.7 1.5,1.5c0,0.8 -0.7,1.5 -1.5,1.5c-0.8,0 -1.5,-0.7 -1.5,-1.5c0,-0.8 0.7,-1.5 1.5,-1.5Z" style="fill:#fff;stroke:#a9bbc9;stroke-width:0.5px;"/></g><g><rect x="148.944" y="190.69" width="83.5" height="13.2" style="fill:#fafafa;stroke:#a9bbc9;stroke-width:0.5px;"/><path d="M158.044,198.49c0.3,0 0.5,0.2 0.6,0.5l0,0.1c0,0.3 -0.3,0.6 -0.6,0.6l-5,0c-0.3,0 -0.6,-0.3 -0.6,-0.6c0,-0.3 0.3,-0.6 0.6,-0.6l5,0Zm0,-1.9c0.3,0 0.5,0.2 0.6,0.5l0,0.1c0,0.3 -0.3,0.5 -0.6,0.5l-5,0c-0.3,0 -0.6,-0.2 -0.6,-0.5c0,-0.3 0.3,-0.6 0.6,-0.6l5,0Zm0,-1.9c0.3,0 0.5,0.2 0.6,0.5l0,0.1c0,0.3 -0.3,0.6 -0.6,0.6l-5,0c-0.3,0 -0.6,-0.3 -0.6,-0.6c0,-0.4 0.3,-0.6 0.6,-0.6l5,0Z" style="fill:#fff;stroke:#a9bbc9;stroke-width:0.5px;"/><path d="M224.644,197.39c-0.1,-0.1 -0.2,-0.3 -0.3,-0.4c-0.1,-0.2 -0.1,-0.3 -0.1,-0.5c0,-0.2 0,-0.3 0.1,-0.5c0.1,-0.2 0.2,-0.3 0.3,-0.4c0.1,-0.1 0.3,-0.2 0.4,-0.3c0.2,-0.1 0.3,-0.1 0.5,-0.1c0.2,0 0.3,0 0.5,0.1c0.2,0.1 0.3,0.2 0.4,0.3c0.1,0.1 0.2,0.3 0.3,0.4c0.1,0.2 0.1,0.3 0.1,0.5c0,0.2 0,0.3 -0.1,0.5c-0.1,0.2 -0.2,0.3 -0.3,0.4c-0.2,0.1 -0.3,0.2 -0.5,0.3c-0.2,0.1 -0.3,0.1 -0.5,0.1c-0.2,0 -0.3,-0.1 -0.4,-0.1c-0.2,-0.1 -0.3,-0.2 -0.4,-0.3Zm-0.8,-2.5c-0.2,0.2 -0.4,0.5 -0.5,0.8c-0.1,0.3 -0.2,0.6 -0.2,0.9c0,0.3 0.1,0.6 0.2,0.9c0.1,0.3 0.3,0.5 0.5,0.8c0.2,0.2 0.4,0.3 0.6,0.4c0.3,0 0.5,0 0.7,0.1l0.7,0c0.2,0 0.5,-0.1 0.7,-0.2l1.4,1.3c0.1,0.1 0.1,0.1 0.2,0.1l0.4,0c0.1,0 0.1,-0.1 0.2,-0.1c0.1,-0.1 0.1,-0.1 0.1,-0.2l0,-0.2l0,-0.2c0,-0.1 -0.1,-0.1 -0.1,-0.2l-1.3,-1.4c0.1,-0.2 0.2,-0.5 0.3,-0.7c0.1,-0.3 0.1,-0.5 0,-0.8c0,-0.3 -0.1,-0.5 -0.2,-0.7c-0.1,-0.2 -0.3,-0.5 -0.5,-0.6c-0.2,-0.2 -0.5,-0.4 -0.8,-0.5c-0.3,-0.1 -0.6,-0.2 -0.9,-0.2c-0.3,0 -0.6,0.1 -0.9,0.2c-0.1,0.1 -0.3,0.3 -0.6,0.5Z" style="fill:#fff;fill-rule:nonzero;stroke:#a9bbc9;stroke-width:0.5px;"/><path d="M173.144,195.99c0,-0.5 0.4,-0.9 0.9,-0.9l33.4,0c0.5,0 0.9,0.4 0.9,0.9l0,2.6c0,0.5 -0.4,0.9 -0.9,0.9l-33.5,0c-0.5,0 -0.9,-0.4 -0.9,-0.9l0,-2.6l0.1,0Z" style="fill:#fff;stroke:#a9bbc9;stroke-width:0.5px;"/></g></g><g><g><path d="M3.6,181.901l78.2,0c1.5,0 2.6,1.2 2.6,2.6l0,148.5c0,1.5 -1.2,2.6 -2.6,2.6l-78.2,0c-1.5,0 -2.6,-1.2 -2.6,-2.6l0,-148.5c0,-1.4 1.2,-2.6 2.6,-2.6Z" style="fill:#fff;stroke:#a9bbc9;stroke-width:0.5px;"/><g><g id="Text"><path d="M44.944,315.511c0,-0.5 0.4,-0.9 0.9,-0.9l18,0c0.5,0 0.9,0.4 0.9,0.9l0,2.6c0,0.5 -0.4,0.9 -0.9,0.9l-18,0c-0.5,0 -0.9,-0.4 -0.9,-0.9l0,-2.6Z" style="fill:#fff;stroke:#a9bbc9;stroke-width:0.5px;"/><path d="M44.944,322.111c0,-0.5 0.4,-0.9 0.9,-0.9l33.4,0c0.5,0 0.9,0.4 0.9,0.9l0,2.6c0,0.5 -0.4,0.9 -0.9,0.9l-33.4,0c-0.5,0 -0.9,-0.4 -0.9,-0.9l0,-2.6Z" style="fill:#fafafa;stroke:#a9bbc9;stroke-width:0.5px;"/><path d="M44.944,328.711c0,-0.5 0.4,-0.9 0.9,-0.9l29,0c0.5,0 0.9,0.4 0.9,0.9l0,2.6c0,0.5 -0.4,0.9 -0.9,0.9l-29,0c-0.5,0 -0.9,-0.4 -0.9,-0.9l0,-2.6Z" style="fill:#fafafa;stroke:#a9bbc9;stroke-width:0.5px;"/></g><path d="M7.194,314.611l31.6,0c1,0 1.8,0.8 1.8,1.8l0,21.1c0,1 -0.8,1.8 -1.8,1.8l-31.6,0c-1,0 -1.8,-0.8 -1.8,-1.8l0,-21.1c0,-1 0.8,-1.8 1.8,-1.8Z" style="fill:#fafafa;stroke:#a9bbc9;stroke-width:0.5px;"/><path d="M27.794,330.711l0,-7.6c0,-0.6 -0.5,-1.1 -1.1,-1.1l-7.5,0c-0.6,0 -1.1,0.5 -1.1,1.1l0,7.5c0,0.6 0.5,1.1 1.1,1.1l7.5,0c0.6,0 1.1,-0.4 1.1,-1Zm-6.7,-3l1.3,1.6l1.9,-2.4l2.4,3.2l-7.5,0l1.9,-2.4Z" style="fill:#fff;stroke:#a9bbc9;stroke-width:0.5px;"/></g></g><g><g><path d="M44.944,257.506c0,-0.5 0.4,-0.9 0.9,-0.9l18,0c0.5,0 0.9,0.4 0.9,0.9l0,2.6c0,0.5 -0.4,0.9 -0.9,0.9l-18,0c-0.5,0 -0.9,-0.4 -0.9,-0.9l0,-2.6Z" style="fill:#fff;stroke:#a9bbc9;stroke-width:0.5px;"/><path d="M44.944,264.106c0,-0.5 0.4,-0.9 0.9,-0.9l33.4,0c0.5,0 0.9,0.4 0.9,0.9l0,2.6c0,0.5 -0.4,0.9 -0.9,0.9l-33.4,0c-0.5,0 -0.9,-0.4 -0.9,-0.9l0,-2.6Z" style="fill:#fafafa;stroke:#a9bbc9;stroke-width:0.5px;"/><path d="M44.944,270.706c0,-0.5 0.4,-0.9 0.9,-0.9l29,0c0.5,0 0.9,0.4 0.9,0.9l0,2.6c0,0.5 -0.4,0.9 -0.9,0.9l-29,0c-0.5,0 -0.9,-0.4 -0.9,-0.9l0,-2.6Z" style="fill:#fafafa;stroke:#a9bbc9;stroke-width:0.5px;"/></g><path d="M7.194,256.606l31.6,0c1,0 1.8,0.8 1.8,1.8l0,21.1c0,1 -0.8,1.8 -1.8,1.8l-31.6,0c-1,0 -1.8,-0.8 -1.8,-1.8l0,-21.1c0,-1 0.8,-1.8 1.8,-1.8Z" style="fill:#fafafa;stroke:#a9bbc9;stroke-width:0.5px;"/><path d="M27.794,272.706l0,-7.6c0,-0.6 -0.5,-1.1 -1.1,-1.1l-7.5,0c-0.6,0 -1.1,0.5 -1.1,1.1l0,7.5c0,0.6 0.5,1.1 1.1,1.1l7.5,0c0.6,0 1.1,-0.4 1.1,-1Zm-6.7,-3l1.3,1.6l1.9,-2.4l2.4,3.2l-7.5,0l1.9,-2.4Z" style="fill:#fff;stroke:#a9bbc9;stroke-width:0.5px;"/></g><g><g><path d="M44.944,286.508c0,-0.5 0.4,-0.9 0.9,-0.9l18,0c0.5,0 0.9,0.4 0.9,0.9l0,2.6c0,0.5 -0.4,0.9 -0.9,0.9l-18,0c-0.5,0 -0.9,-0.4 -0.9,-0.9l0,-2.6Z" style="fill:#fff;stroke:#a9bbc9;stroke-width:0.5px;"/><path d="M44.944,293.108c0,-0.5 0.4,-0.9 0.9,-0.9l33.4,0c0.5,0 0.9,0.4 0.9,0.9l0,2.6c0,0.5 -0.4,0.9 -0.9,0.9l-33.4,0c-0.5,0 -0.9,-0.4 -0.9,-0.9l0,-2.6Z" style="fill:#fafafa;stroke:#a9bbc9;stroke-width:0.5px;"/><path d="M44.944,299.708c0,-0.5 0.4,-0.9 0.9,-0.9l29,0c0.5,0 0.9,0.4 0.9,0.9l0,2.6c0,0.5 -0.4,0.9 -0.9,0.9l-29,0c-0.5,0 -0.9,-0.4 -0.9,-0.9l0,-2.6Z" style="fill:#fafafa;stroke:#a9bbc9;stroke-width:0.5px;"/></g><path d="M7.194,285.608l31.6,0c1,0 1.8,0.8 1.8,1.8l0,21.1c0,1 -0.8,1.8 -1.8,1.8l-31.6,0c-1,0 -1.8,-0.8 -1.8,-1.8l0,-21.1c0,-1 0.8,-1.8 1.8,-1.8Z" style="fill:#fafafa;stroke:#a9bbc9;stroke-width:0.5px;"/><path d="M27.794,301.708l0,-7.6c0,-0.6 -0.5,-1.1 -1.1,-1.1l-7.5,0c-0.6,0 -1.1,0.5 -1.1,1.1l0,7.5c0,0.6 0.5,1.1 1.1,1.1l7.5,0c0.6,0 1.1,-0.4 1.1,-1Zm-6.7,-3l1.3,1.6l1.9,-2.4l2.4,3.2l-7.5,0l1.9,-2.4Z" style="fill:#fff;stroke:#a9bbc9;stroke-width:0.5px;"/></g><path d="M1,203.873l83.5,0l0,48.3l-83.5,0l0,-48.3Z" style="fill:#fafafa;stroke:#a9bbc9;stroke-width:0.5px;"/><g><path d="M15.501,226.314c0,-0.5 0.4,-0.9 0.9,-0.9l52.7,0c0.5,0 0.9,0.4 0.9,0.9l0,2.6c0,0.5 -0.4,0.9 -0.9,0.9l-52.7,0c-0.5,0 -0.9,-0.4 -0.9,-0.9l0,-2.6Z" style="fill:#fff;stroke:#a9bbc9;stroke-width:0.5px;"/><path d="M29.101,219.714c0,-0.5 0.4,-0.9 0.9,-0.9l25.5,0c0.5,0 0.9,0.4 0.9,0.9l0,2.6c0,0.5 -0.4,0.9 -0.9,0.9l-25.5,0c-0.5,0 -0.9,-0.4 -0.9,-0.9l0,-2.6Z" style="fill:#fff;stroke:#a9bbc9;stroke-width:0.5px;"/><path d="M22.501,232.914c0,-0.5 0.4,-0.9 0.9,-0.9l38.7,0c0.5,0 0.9,0.4 0.9,0.9l0,2.6c0,0.5 -0.4,0.9 -0.9,0.9l-38.7,0c-0.5,0 -0.9,-0.4 -0.9,-0.9l0,-2.6Z" style="fill:#fff;stroke:#a9bbc9;stroke-width:0.5px;"/></g><g><path d="M1,190.69l83.5,0l0,13.2l-83.5,0l0,-13.2Z" style="fill:#fff;stroke:#a9bbc9;stroke-width:0.5px;"/><path d="M25.169,195.984c0,-0.5 0.4,-0.9 0.9,-0.9l33.4,0c0.5,0 0.9,0.4 0.9,0.9l0,2.6c0,0.5 -0.4,0.9 -0.9,0.9l-33.4,0c-0.5,0 -0.9,-0.4 -0.9,-0.9l0,-2.6Z" style="fill:#fff;stroke:#a9bbc9;stroke-width:0.5px;"/><path d="M10.1,198.79c0.3,0 0.5,0.2 0.6,0.5l0,0.1c0,0.3 -0.3,0.6 -0.6,0.6l-5,0c-0.3,0 -0.6,-0.3 -0.6,-0.6c0,-0.3 0.3,-0.6 0.6,-0.6l5,0Zm0,-2c0.3,0 0.5,0.2 0.6,0.5l0,0.1c0,0.3 -0.3,0.6 -0.6,0.6l-5,0c-0.3,0 -0.6,-0.3 -0.6,-0.6c0,-0.3 0.3,-0.6 0.6,-0.6l5,0Zm0,-2c0.3,0 0.5,0.2 0.6,0.5l0,0.1c0,0.3 -0.3,0.6 -0.6,0.6l-5,0c-0.3,0 -0.6,-0.3 -0.6,-0.6c0,-0.3 0.3,-0.6 0.6,-0.6l5,0Z" style="fill:#fff;stroke:#a9bbc9;stroke-width:0.5px;"/><path d="M76.7,197.59c-0.1,-0.1 -0.2,-0.3 -0.3,-0.4c-0.1,-0.2 -0.1,-0.3 -0.1,-0.5c0,-0.2 0,-0.3 0.1,-0.5c0.1,-0.2 0.2,-0.3 0.3,-0.4c0.1,-0.1 0.3,-0.2 0.4,-0.3c0.2,-0.1 0.3,-0.1 0.5,-0.1c0.2,0 0.3,0 0.5,0.1c0.2,0.1 0.3,0.2 0.4,0.3c0.1,0.1 0.2,0.3 0.3,0.4c0.1,0.2 0.1,0.3 0.1,0.5c0,0.2 0,0.3 -0.1,0.5c-0.1,0.2 -0.2,0.3 -0.3,0.4c-0.1,0.1 -0.3,0.2 -0.4,0.3c-0.2,0.1 -0.3,0.1 -0.5,0.1c-0.2,0 -0.3,0 -0.5,-0.1c-0.2,0 -0.3,-0.1 -0.4,-0.3Zm-0.8,-2.6c-0.2,0.2 -0.4,0.5 -0.5,0.8c-0.1,0.3 -0.2,0.6 -0.2,0.9c0,0.3 0.1,0.6 0.2,0.9c0.1,0.3 0.3,0.6 0.5,0.8c0.2,0.2 0.4,0.3 0.6,0.4c0.2,0.1 0.4,0.2 0.7,0.2l0.7,0c0.2,0 0.5,-0.1 0.7,-0.2l1.4,1.4c0.1,0.1 0.1,0.1 0.2,0.1l0.4,0c0,0 0.1,-0.1 0.2,-0.1c0.1,-0.1 0.1,-0.1 0.1,-0.2l0,-0.2l0,-0.2c0,-0.1 -0.1,-0.1 -0.1,-0.2l-1.3,-1.4c0.1,-0.2 0.2,-0.5 0.3,-0.7c0.1,-0.3 0.1,-0.5 0,-0.8c0,-0.3 -0.1,-0.5 -0.2,-0.8c-0.1,-0.2 -0.3,-0.5 -0.5,-0.7c-0.2,-0.2 -0.5,-0.4 -0.8,-0.5c-0.3,-0.1 -0.6,-0.2 -0.9,-0.2c-0.3,0 -0.6,0.1 -0.9,0.2c-0.1,0.1 -0.3,0.3 -0.6,0.5Z" style="fill:#fff;fill-rule:nonzero;stroke:#a9bbc9;stroke-width:0.5px;"/></g><g><path d="M1,184.501c0,-1.4 1.2,-2.6 2.6,-2.6l78.2,0c1.5,0 2.6,1.2 2.6,2.6l0,6.2l-83.4,0l0,-6.2Z" style="fill:#fff;stroke:#a9bbc9;stroke-width:0.5px;"/><path d="M38.1,185.001l9.2,0c0.8,0 1.5,0.7 1.5,1.5c0,0.8 -0.7,1.5 -1.5,1.5l-9.2,0c-0.8,0 -1.5,-0.7 -1.5,-1.5c0,-0.8 0.7,-1.5 1.5,-1.5Z" style="fill:#fff;stroke:#a9bbc9;stroke-width:0.5px;"/><path d="M75,185.001l4.8,0c0.8,0 1.5,0.7 1.5,1.5c0,0.8 -0.7,1.5 -1.5,1.5l-4.8,0c-0.8,0 -1.5,-0.7 -1.5,-1.5c0,-0.8 0.7,-1.5 1.5,-1.5Z" style="fill:#fff;stroke:#a9bbc9;stroke-width:0.5px;"/><path d="M70.7,185.001c0.8,0 1.5,0.7 1.5,1.5c0,0.8 -0.7,1.5 -1.5,1.5c-0.8,0 -1.5,-0.7 -1.5,-1.5c-0.1,-0.8 0.6,-1.5 1.5,-1.5Z" style="fill:#fff;stroke:#a9bbc9;stroke-width:0.5px;"/><path d="M5.6,185.001c0.8,0 1.5,0.7 1.5,1.5c0,0.8 -0.7,1.5 -1.5,1.5c-0.8,0 -1.5,-0.7 -1.5,-1.5c0,-0.8 0.7,-1.5 1.5,-1.5Z" style="fill:#fff;stroke:#a9bbc9;stroke-width:0.5px;"/><path d="M10,185.001c0.8,0 1.5,0.7 1.5,1.5c0,0.8 -0.7,1.5 -1.5,1.5c-0.8,0 -1.5,-0.7 -1.5,-1.5c0,-0.8 0.7,-1.5 1.5,-1.5Z" style="fill:#fff;stroke:#a9bbc9;stroke-width:0.5px;"/><path d="M14.4,185.001c0.8,0 1.5,0.7 1.5,1.5c0,0.8 -0.7,1.5 -1.5,1.5c-0.8,0 -1.5,-0.7 -1.5,-1.5c0,-0.8 0.7,-1.5 1.5,-1.5Z" style="fill:#fff;stroke:#a9bbc9;stroke-width:0.5px;"/></g></g><g><path d="M90.72,83.796l51.6,0" style="fill:none;fill-rule:nonzero;stroke:#00bcff;stroke-width:0.5px;"/><circle id="Oval-3" cx="90.72" cy="83.796" r="1.1" style="fill:#2d4ef5;"/><circle cx="142.72" cy="83.796" r="1.1" style="fill:#2d4ef5;"/></g><g><path d="M89.255,265.4l53.8,0" style="fill:none;fill-rule:nonzero;stroke:#00bcff;stroke-width:0.5px;"/><circle cx="89.255" cy="265.4" r="1.1" style="fill:#2d4ef5;"/><circle cx="143.455" cy="265.4" r="1.1" style="fill:#2d4ef5;"/></g><g><path d="M237.199,265.352l53.8,0" style="fill:none;fill-rule:nonzero;stroke:#00bcff;stroke-width:0.5px;"/><circle cx="237.199" cy="265.352" r="1.1" style="fill:#2d4ef5;"/><circle id="Oval-3-Copy" cx="386.599" cy="265.352" r="1.1" style="fill:#2d4ef5;"/><circle id="Oval-3-Copy-4" cx="386.599" cy="42.752" r="1.1" style="fill:#2d4ef5;"/><circle cx="291.399" cy="265.352" r="1.1" style="fill:#2d4ef5;"/><path id="Line-Copy-5" d="M386.599,265.352l53.8,0" style="fill:none;fill-rule:nonzero;stroke:#00bcff;stroke-width:0.5px;"/><circle id="Oval-3-Copy-2" cx="440.799" cy="265.352" r="1.1" style="fill:#2d4ef5;"/><path id="Line-Copy-9" d="M386.599,42.752l53.8,0" style="fill:none;fill-rule:nonzero;stroke:#00bcff;stroke-width:0.5px;"/><circle id="Oval-3-Copy-8" cx="440.799" cy="42.752" r="1.1" style="fill:#2d4ef5;"/></g><g id="Info"><circle cx="264.673" cy="265.358" r="8.8" style="fill:#008af3;"/><circle id="Oval-3-Copy-3" cx="414.073" cy="265.358" r="8.8" style="fill:#008af3;"/><circle id="Oval-3-Copy-9" cx="414.073" cy="42.758" r="8.8" style="fill:#008af3;"/><g id="Page-1"><path id="path-13_1_" d="M267.973,264.558c-0.6,0 -1.1,0.5 -1.1,1.1c0,0.6 0.5,1.1 1.1,1.1c0.6,0 1.1,-0.5 1.1,-1.1c0,-0.6 -0.5,-1.1 -1.1,-1.1m-6.6,0c-0.6,0 -1.1,0.5 -1.1,1.1c0,0.6 0.5,1.1 1.1,1.1c0.6,0 1.1,-0.5 1.1,-1.1c0,-0.6 -0.5,-1.1 -1.1,-1.1m3.3,0c-0.6,0 -1.1,0.5 -1.1,1.1c0,0.6 0.5,1.1 1.1,1.1c0.6,0 1.1,-0.5 1.1,-1.1c0,-0.6 -0.5,-1.1 -1.1,-1.1"/><path d="M267.973,264.558c-0.6,0 -1.1,0.5 -1.1,1.1c0,0.6 0.5,1.1 1.1,1.1c0.6,0 1.1,-0.5 1.1,-1.1c0,-0.6 -0.5,-1.1 -1.1,-1.1m-6.6,0c-0.6,0 -1.1,0.5 -1.1,1.1c0,0.6 0.5,1.1 1.1,1.1c0.6,0 1.1,-0.5 1.1,-1.1c0,-0.6 -0.5,-1.1 -1.1,-1.1m3.3,0c-0.6,0 -1.1,0.5 -1.1,1.1c0,0.6 0.5,1.1 1.1,1.1c0.6,0 1.1,-0.5 1.1,-1.1c0,-0.6 -0.5,-1.1 -1.1,-1.1" style="fill:#fff;"/></g><g id="Page-1-Copy-2"><path id="path-15_1_" d="M417.373,264.558c-0.6,0 -1.1,0.5 -1.1,1.1c0,0.6 0.5,1.1 1.1,1.1c0.6,0 1.1,-0.5 1.1,-1.1c0,-0.6 -0.5,-1.1 -1.1,-1.1m-6.6,0c-0.6,0 -1.1,0.5 -1.1,1.1c0,0.6 0.5,1.1 1.1,1.1c0.6,0 1.1,-0.5 1.1,-1.1c0,-0.6 -0.5,-1.1 -1.1,-1.1m3.3,0c-0.6,0 -1.1,0.5 -1.1,1.1c0,0.6 0.5,1.1 1.1,1.1c0.6,0 1.1,-0.5 1.1,-1.1c0,-0.6 -0.5,-1.1 -1.1,-1.1"/><path d="M417.373,264.558c-0.6,0 -1.1,0.5 -1.1,1.1c0,0.6 0.5,1.1 1.1,1.1c0.6,0 1.1,-0.5 1.1,-1.1c0,-0.6 -0.5,-1.1 -1.1,-1.1m-6.6,0c-0.6,0 -1.1,0.5 -1.1,1.1c0,0.6 0.5,1.1 1.1,1.1c0.6,0 1.1,-0.5 1.1,-1.1c0,-0.6 -0.5,-1.1 -1.1,-1.1m3.3,0c-0.6,0 -1.1,0.5 -1.1,1.1c0,0.6 0.5,1.1 1.1,1.1c0.6,0 1.1,-0.5 1.1,-1.1c0,-0.6 -0.5,-1.1 -1.1,-1.1" style="fill:#fff;"/></g><g id="Page-1-Copy-3"><path id="path-17_1_" d="M417.373,41.858c-0.6,0 -1.1,0.5 -1.1,1.1c0,0.6 0.5,1.1 1.1,1.1c0.6,0 1.1,-0.5 1.1,-1.1c0,-0.6 -0.5,-1.1 -1.1,-1.1m-6.6,0c-0.6,0 -1.1,0.5 -1.1,1.1c0,0.6 0.5,1.1 1.1,1.1c0.6,0 1.1,-0.5 1.1,-1.1c0,-0.6 -0.5,-1.1 -1.1,-1.1m3.3,0c-0.6,0 -1.1,0.5 -1.1,1.1c0,0.6 0.5,1.1 1.1,1.1c0.6,0 1.1,-0.5 1.1,-1.1c0,-0.6 -0.5,-1.1 -1.1,-1.1"/><path d="M417.373,41.858c-0.6,0 -1.1,0.5 -1.1,1.1c0,0.6 0.5,1.1 1.1,1.1c0.6,0 1.1,-0.5 1.1,-1.1c0,-0.6 -0.5,-1.1 -1.1,-1.1m-6.6,0c-0.6,0 -1.1,0.5 -1.1,1.1c0,0.6 0.5,1.1 1.1,1.1c0.6,0 1.1,-0.5 1.1,-1.1c0,-0.6 -0.5,-1.1 -1.1,-1.1m3.3,0c-0.6,0 -1.1,0.5 -1.1,1.1c0,0.6 0.5,1.1 1.1,1.1c0.6,0 1.1,-0.5 1.1,-1.1c0,-0.6 -0.5,-1.1 -1.1,-1.1" style="fill:#fff;"/></g></g><g id="Success"><circle cx="115.997" cy="265.406" r="8.8" style="fill:#008af3;"/><g id="Fill-1"><path id="path-19_1_" d="M118.597,262.806c-0.2,0 -0.5,0.1 -0.6,0.3l-0.9,0.8l-2,2l-1.1,-1.1c-0.2,-0.2 -0.4,-0.3 -0.6,-0.3c-0.5,0 -0.9,0.4 -0.9,0.9c0,0.2 0.1,0.5 0.3,0.6l1.8,1.8c0.2,0.2 0.4,0.3 0.6,0.3c0.2,0 0.5,-0.1 0.6,-0.3l2.6,-2.6l0.8,-0.9c0.2,-0.2 0.3,-0.4 0.3,-0.6c0,-0.6 -0.4,-0.9 -0.9,-0.9"/><path d="M118.597,262.806c-0.2,0 -0.5,0.1 -0.6,0.3l-0.9,0.8l-2,2l-1.1,-1.1c-0.2,-0.2 -0.4,-0.3 -0.6,-0.3c-0.5,0 -0.9,0.4 -0.9,0.9c0,0.2 0.1,0.5 0.3,0.6l1.8,1.8c0.2,0.2 0.4,0.3 0.6,0.3c0.2,0 0.5,-0.1 0.6,-0.3l2.6,-2.6l0.8,-0.9c0.2,-0.2 0.3,-0.4 0.3,-0.6c0,-0.6 -0.4,-0.9 -0.9,-0.9" style="fill:#fff;"/></g></g><g><circle cx="116.73" cy="83.772" r="8.8" style="fill:#008af3;"/><g><path id="path-21_1_" d="M120.03,82.872c-0.6,0 -1.1,0.5 -1.1,1.1c0,0.6 0.5,1.1 1.1,1.1c0.6,0 1.1,-0.5 1.1,-1.1c0,-0.6 -0.5,-1.1 -1.1,-1.1m-6.6,0c-0.6,0 -1.1,0.5 -1.1,1.1c0,0.6 0.5,1.1 1.1,1.1c0.6,0 1.1,-0.5 1.1,-1.1c0,-0.6 -0.5,-1.1 -1.1,-1.1m3.3,0c-0.6,0 -1.1,0.5 -1.1,1.1c0,0.6 0.5,1.1 1.1,1.1c0.6,0 1.1,-0.5 1.1,-1.1c0,-0.6 -0.5,-1.1 -1.1,-1.1"/><path d="M120.03,82.872c-0.6,0 -1.1,0.5 -1.1,1.1c0,0.6 0.5,1.1 1.1,1.1c0.6,0 1.1,-0.5 1.1,-1.1c0,-0.6 -0.5,-1.1 -1.1,-1.1m-6.6,0c-0.6,0 -1.1,0.5 -1.1,1.1c0,0.6 0.5,1.1 1.1,1.1c0.6,0 1.1,-0.5 1.1,-1.1c0,-0.6 -0.5,-1.1 -1.1,-1.1m3.3,0c-0.6,0 -1.1,0.5 -1.1,1.1c0,0.6 0.5,1.1 1.1,1.1c0.6,0 1.1,-0.5 1.1,-1.1c0,-0.6 -0.5,-1.1 -1.1,-1.1" style="fill:#fff;"/></g></g></g><path d="M235.4,98.4l25.9,0c1.5,0 2.6,1.2 2.6,2.6l0,114.8c0,1.5 -1.2,2.6 -2.6,2.6l-25.5,0" style="fill:none;fill-rule:nonzero;stroke:#00bcff;stroke-width:0.5px;stroke-dasharray:0.88,0.88;"/><circle cx="235" cy="98" r="1.1" style="fill:#2d4ef5;"/><path d="M235,217.2c0.2,-0.2 0.4,-0.1 0.4,0.2l0,1.6c0,0.2 -0.2,0.3 -0.4,0.2l-0.9,-0.7c-0.2,-0.2 -0.2,-0.4 0,-0.5l0.9,-0.8Z" style="fill:#2d4ef5;"/><circle cx="263.9" cy="158.5" r="8.8" style="fill:#008af3;"/><g><path id="path-23_1_" d="M267.2,157.7c-0.6,0 -1.1,0.5 -1.1,1.1c0,0.6 0.5,1.1 1.1,1.1c0.6,0 1.1,-0.5 1.1,-1.1c0,-0.6 -0.5,-1.1 -1.1,-1.1m-6.6,0c-0.6,0 -1.1,0.5 -1.1,1.1c0,0.6 0.5,1.1 1.1,1.1c0.6,0 1.1,-0.5 1.1,-1.1c0,-0.6 -0.5,-1.1 -1.1,-1.1m3.3,0c-0.6,0 -1.1,0.5 -1.1,1.1c0,0.6 0.5,1.1 1.1,1.1c0.6,0 1.1,-0.5 1.1,-1.1c0,-0.6 -0.5,-1.1 -1.1,-1.1"/><path d="M267.2,157.7c-0.6,0 -1.1,0.5 -1.1,1.1c0,0.6 0.5,1.1 1.1,1.1c0.6,0 1.1,-0.5 1.1,-1.1c0,-0.6 -0.5,-1.1 -1.1,-1.1m-6.6,0c-0.6,0 -1.1,0.5 -1.1,1.1c0,0.6 0.5,1.1 1.1,1.1c0.6,0 1.1,-0.5 1.1,-1.1c0,-0.6 -0.5,-1.1 -1.1,-1.1m3.3,0c-0.6,0 -1.1,0.5 -1.1,1.1c0,0.6 0.5,1.1 1.1,1.1c0.6,0 1.1,-0.5 1.1,-1.1c0,-0.6 -0.5,-1.1 -1.1,-1.1" style="fill:#fff;"/></g></g></svg>