<svg width="199" height="46" viewBox="0 0 199 46" fill="none" xmlns="http://www.w3.org/2000/svg">
<path d="M6.29804 43.2781C4.38687 42.141 2.79799 40.4727 1.69907 38.4493C0.56706 36.3922 0.000702241 34.0622 0 31.4593C0 28.8843 0.566358 26.5678 1.69907 24.5098C2.79828 22.4867 4.38709 20.8185 6.29804 19.6811C8.23202 18.5198 10.3553 17.9392 12.6677 17.9392C15.0034 17.9392 17.1322 18.5198 19.0543 19.6811C20.9552 20.82 22.5324 22.4886 23.6185 24.5098C24.7386 26.5678 25.3004 28.8843 25.3039 31.4593C25.3039 34.0591 24.7421 36.3892 23.6185 38.4493C22.5292 40.4745 20.9451 42.1438 19.0364 43.2781C17.0914 44.4422 14.8961 45.0427 12.6677 45.02C10.356 45.02 8.23272 44.4394 6.29804 43.2781ZM16.5947 39.0559C17.728 38.3339 18.6473 37.2832 19.246 36.0254C19.8829 34.7258 20.2014 33.2049 20.2014 31.4627C20.2014 29.7204 19.8829 28.1992 19.246 26.8989C18.6493 25.644 17.7283 24.5991 16.5926 23.8886C15.4606 23.1821 14.1516 22.8285 12.6656 22.8277C11.1797 22.827 9.86438 23.1806 8.71972 23.8886C7.57641 24.595 6.64862 25.6404 6.0484 26.8989C5.41217 28.1999 5.09371 29.7212 5.093 31.4627C5.0923 33.2042 5.41076 34.7251 6.0484 36.0254C6.65105 37.2872 7.57783 38.3386 8.71972 39.0559C9.86367 39.7752 11.179 40.1348 12.6656 40.1348C14.1523 40.1348 15.4619 39.7752 16.5947 39.0559Z" fill="#FF6D00"/>
<path d="M33.932 19.3813V42.1046C33.9317 42.8075 33.6707 43.4815 33.2063 43.9785C32.742 44.4755 32.1122 44.7549 31.4555 44.7551C30.7986 44.7551 30.1686 44.4759 29.704 43.9789C29.2394 43.4818 28.9783 42.8077 28.978 42.1046V19.3813C28.9783 18.6782 29.2394 18.004 29.704 17.507C30.1686 17.0099 30.7986 16.7307 31.4555 16.7307C32.1122 16.731 32.742 17.0104 33.2063 17.5074C33.6707 18.0044 33.9317 18.6784 33.932 19.3813Z" fill="#FF6D00"/>
<path d="M39.1545 20.3859C38.8803 20.0963 38.6625 19.7513 38.5139 19.3709C38.3652 18.9905 38.2887 18.5823 38.2887 18.17C38.2887 17.7576 38.3652 17.3494 38.5139 16.969C38.6625 16.5886 38.8803 16.2436 39.1545 15.954C39.7332 15.3625 40.4586 15.066 41.3308 15.0645C42.2029 15.063 42.9283 15.3595 43.507 15.954C43.7815 16.2434 43.9995 16.5884 44.1483 16.9688C44.2971 17.3492 44.3737 17.7575 44.3737 18.17C44.3737 18.5824 44.2971 18.9907 44.1483 19.3711C43.9995 19.7515 43.7815 20.0965 43.507 20.3859C42.9227 20.9767 42.1959 21.2721 41.3265 21.2721C40.4572 21.2721 39.7332 20.9767 39.1545 20.3859ZM43.7724 26.4255V42.1047C43.7722 42.8075 43.5112 43.4816 43.0468 43.9786C42.5824 44.4756 41.9527 44.7549 41.296 44.7552C40.6391 44.7552 40.0091 44.476 39.5445 43.979C39.0799 43.4819 38.8188 42.8077 38.8185 42.1047V26.4255C38.8188 25.7225 39.0799 25.0483 39.5445 24.5512C40.0091 24.0542 40.6391 23.775 41.296 23.775C41.952 23.7764 42.5806 24.0563 43.0441 24.5532C43.5075 25.0501 43.768 25.7234 43.7682 26.4255H43.7724Z" fill="#FF6D00"/>
<path d="M56.9753 39.3771L61.2214 25.5842C61.3842 25.0588 61.6976 24.6016 62.117 24.2778C62.5364 23.954 63.0406 23.7799 63.5577 23.7803C63.9541 23.7803 64.3445 23.8828 64.6959 24.079C65.0472 24.2753 65.3491 24.5594 65.5758 24.9074C65.8025 25.2553 65.9474 25.6567 65.998 26.0774C66.0487 26.4981 66.0036 26.9257 65.8667 27.3238L60.9159 41.7041C60.6074 42.6006 60.0494 43.3743 59.3173 43.9208C58.5852 44.4673 57.7141 44.7604 56.8215 44.7606C55.9288 44.7607 55.0576 44.4677 54.3254 43.9212C53.5932 43.3746 53.0353 42.6008 52.7271 41.7041L47.7763 27.3238C47.6394 26.9258 47.5943 26.4983 47.6449 26.0777C47.6955 25.6571 47.8402 25.2557 48.0668 24.9078C48.2934 24.5599 48.5952 24.2757 48.9464 24.0794C49.2976 23.8831 49.6879 23.7805 50.0842 23.7803C50.6015 23.7798 51.1058 23.9539 51.5254 24.2777C51.945 24.6015 52.2586 25.0587 52.4216 25.5842L56.6666 39.3771C56.6752 39.4139 56.6951 39.4466 56.7231 39.47C56.751 39.4934 56.7855 39.5061 56.8209 39.5061C56.8564 39.5061 56.8909 39.4934 56.9189 39.47C56.9468 39.4466 56.9667 39.4139 56.9753 39.3771Z" fill="#FF6D00"/>
<path d="M86.2451 35.7413H73.5995C73.6943 37.2821 74.1781 38.4941 75.051 39.3773C75.9239 40.2604 77.0089 40.7024 78.3059 40.7031C79.7623 40.7031 80.8859 40.1729 81.6767 39.1123C81.8886 38.821 82.1592 38.5846 82.4683 38.4206C82.7775 38.2566 83.1171 38.1694 83.4621 38.1653C85.5783 38.1653 86.6138 40.9512 85.0579 42.4856C84.8226 42.7185 84.5765 42.9386 84.3206 43.1451C82.716 44.4462 80.7465 45.0963 78.4123 45.0956C76.5246 45.0956 74.8319 44.6476 73.334 43.7517C71.8491 42.8695 70.6331 41.5481 69.8316 39.9455C68.9938 38.3055 68.5753 36.4118 68.576 34.2644C68.576 32.0945 68.9886 30.1884 69.8137 28.5461C70.5997 26.9487 71.8051 25.6323 73.2813 24.7591C74.7673 23.8767 76.4776 23.4351 78.4123 23.4343C80.2746 23.4343 81.9435 23.8635 83.4189 24.7218C84.867 25.553 86.0591 26.8155 86.8508 28.3567C87.664 29.9223 88.0709 31.7262 88.0716 33.7683V33.7886C88.0719 34.0453 88.0248 34.2996 87.9331 34.5368C87.8414 34.7739 87.7068 34.9894 87.5371 35.1708C87.3674 35.3523 87.166 35.496 86.9442 35.5939C86.7225 35.6918 86.4849 35.7419 86.2451 35.7413ZM82.9365 32.5225C82.9133 31.0591 82.4593 29.9043 81.5745 29.0579C80.6896 28.2116 79.5868 27.7884 78.2659 27.7884C77.0159 27.7884 75.9664 28.2116 75.1174 29.0579C74.2684 29.9043 73.7624 31.0591 73.5995 32.5225H82.9365Z" fill="#FF6D00"/>
<path d="M92.1176 24.513C93.1811 22.491 94.7494 20.8256 96.647 19.7034C98.5698 18.5542 100.712 17.98 103.073 17.9807C105.856 17.9807 108.273 18.7064 110.325 20.1578C110.944 20.5936 111.519 21.0985 112.039 21.664C113.609 23.3788 112.46 26.2741 110.22 26.2741C109.84 26.2731 109.465 26.1816 109.122 26.0061C108.78 25.8305 108.478 25.5754 108.239 25.2594C107.771 24.639 107.193 24.1234 106.539 23.7419C105.549 23.1609 104.393 22.8707 103.073 22.8715C101.61 22.8715 100.312 23.2248 99.1804 23.9313C98.0411 24.646 97.1193 25.698 96.5259 26.9607C95.8897 28.2745 95.5712 29.7894 95.5705 31.5053C95.5705 33.2731 95.8949 34.8139 96.5438 36.1278C97.153 37.3972 98.0934 38.45 99.2509 39.1583C100.407 39.8648 101.751 40.2181 103.284 40.2181C105.17 40.2181 106.721 39.6754 107.937 38.5901C109.153 37.5047 109.937 36.0015 110.29 34.0804H103.674C103.428 34.0805 103.184 34.0287 102.956 33.9279C102.729 33.8271 102.522 33.6793 102.348 33.493C102.173 33.3066 102.035 33.0853 101.941 32.8418C101.847 32.5982 101.798 32.3372 101.798 32.0735C101.798 31.8099 101.847 31.5489 101.941 31.3053C102.035 31.0618 102.173 30.8405 102.348 30.6541C102.522 30.4677 102.729 30.3199 102.956 30.2192C103.184 30.1184 103.428 30.0666 103.674 30.0667H111.919C112.346 30.0667 112.769 30.1568 113.164 30.3319C113.559 30.507 113.918 30.7637 114.22 31.0872C114.522 31.4107 114.762 31.7947 114.925 32.2174C115.089 32.64 115.173 33.093 115.172 33.5505C115.174 34.5922 115.004 35.6261 114.67 36.6047C113.618 39.6233 111.541 42.1065 108.854 43.5586C107.144 44.5049 105.227 44.9781 103.104 44.9781C100.721 44.9781 98.5691 44.4038 96.647 43.2554C94.7528 42.1369 93.1851 40.4788 92.1176 38.4649C91.0214 36.4198 90.4729 34.0969 90.4722 31.4963C90.4715 28.8957 91.02 26.5679 92.1176 24.513Z" fill="#FF6D00"/>
<path d="M135.232 35.741H122.6C122.694 37.2818 123.177 38.4938 124.05 39.3769C124.923 40.2601 126.008 40.702 127.305 40.7028C128.762 40.7028 129.885 40.1725 130.676 39.112C130.889 38.82 131.16 38.5833 131.47 38.4193C131.78 38.2553 132.121 38.1684 132.467 38.1649H132.572C134.648 38.1649 135.648 40.8798 134.138 42.4041C133.88 42.6663 133.609 42.9132 133.325 43.1437C131.72 44.4447 129.751 45.0949 127.416 45.0941C125.528 45.0941 123.836 44.6461 122.338 43.7502C120.853 42.8683 119.637 41.5468 118.836 39.944C117.998 38.304 117.579 36.4103 117.579 34.2629C117.579 32.093 117.992 30.1869 118.818 28.5446C119.604 26.9469 120.809 25.6304 122.286 24.7576C123.771 23.8752 125.481 23.4336 127.416 23.4329C129.279 23.4329 130.948 23.862 132.422 24.7204C133.87 25.5517 135.062 26.8147 135.853 28.3563C136.667 29.922 137.074 31.7258 137.074 33.768V33.7883C137.073 34.046 137.024 34.3009 136.931 34.5386C136.838 34.7762 136.702 34.9918 136.531 35.1732C136.36 35.3545 136.157 35.498 135.934 35.5954C135.711 35.6929 135.472 35.7423 135.232 35.741ZM131.941 32.5222C131.917 31.0588 131.463 29.9039 130.578 29.0576C129.693 28.2113 128.591 27.7881 127.27 27.7881C126.02 27.7881 124.971 28.2113 124.121 29.0576C123.271 29.9039 122.764 31.0588 122.6 32.5222H131.941Z" fill="#FF6D00"/>
<path d="M157.063 35.7413H144.431C144.525 37.2821 145.008 38.4941 145.881 39.3773C146.754 40.2604 147.839 40.7024 149.136 40.7031C150.592 40.7031 151.716 40.1729 152.507 39.1123C152.719 38.821 152.989 38.5846 153.298 38.4206C153.608 38.2566 153.947 38.1694 154.292 38.1653H154.404C156.48 38.1653 157.48 40.8801 155.97 42.4044C155.71 42.6673 155.436 42.9145 155.15 43.1451C153.545 44.4462 151.576 45.0963 149.241 45.0956C147.354 45.0956 145.661 44.6476 144.164 43.7517C142.679 42.8699 141.462 41.5484 140.661 39.9455C139.823 38.3055 139.404 36.4118 139.405 34.2644C139.405 32.0945 139.818 30.1884 140.643 28.5461C141.429 26.949 142.634 25.6327 144.11 24.7591C145.597 23.8767 147.307 23.4351 149.241 23.4343C151.105 23.4343 152.774 23.8635 154.248 24.7218C155.696 25.5527 156.888 26.8153 157.68 28.3567C158.494 29.9223 158.901 31.7262 158.901 33.7683V33.7886C158.898 34.3083 158.704 34.8058 158.359 35.1719C158.014 35.538 157.548 35.7428 157.063 35.7413ZM153.771 32.5225C153.748 31.0591 153.294 29.9043 152.409 29.0579C151.524 28.2116 150.421 27.7884 149.101 27.7884C147.85 27.7884 146.8 28.2116 145.952 29.0579C145.103 29.9043 144.596 31.0591 144.431 32.5225H153.771Z" fill="#FF6D00"/>
<path d="M173.403 43.7968L167.463 35.8158V42.1023C167.463 42.4504 167.399 42.7951 167.275 43.1167C167.15 43.4382 166.968 43.7304 166.738 43.9766C166.508 44.2227 166.235 44.4179 165.935 44.5511C165.634 44.6843 165.312 44.7529 164.987 44.7529C164.33 44.7526 163.7 44.4732 163.236 43.9762C162.772 43.4792 162.511 42.8052 162.51 42.1023V19.3813C162.511 18.6784 162.772 18.0044 163.236 17.5074C163.7 17.0104 164.33 16.731 164.987 16.7307C165.312 16.7307 165.634 16.7993 165.935 16.9325C166.235 17.0657 166.508 17.2609 166.738 17.5071C166.968 17.7532 167.15 18.0454 167.275 18.367C167.399 18.6885 167.463 19.0332 167.463 19.3813V32.6748L173.326 24.7456C173.551 24.4429 173.836 24.1983 174.161 24.0302C174.485 23.8621 174.842 23.7748 175.202 23.7749C177.26 23.7749 178.363 26.368 177.001 28.0241L171.852 34.3028L177.032 40.5239C178.402 42.1621 177.309 44.7551 175.259 44.7551C174.903 44.7551 174.55 44.6689 174.229 44.503C173.908 44.3371 173.625 44.0957 173.403 43.7968Z" fill="#FF6D00"/>
<path d="M186.341 44.1675C185.077 43.5497 184.074 42.7101 183.333 41.6488L183.311 41.6173C182.312 40.1753 183.299 38.1222 184.977 38.1222H185.004C185.52 38.1293 186.026 38.2685 186.481 38.5282C186.936 38.7879 187.327 39.1606 187.62 39.6149C187.783 39.8581 187.978 40.0755 188.198 40.261C188.835 40.8044 189.649 41.0761 190.64 41.0761C191.582 41.0761 192.319 40.8675 192.852 40.4504C193.105 40.2627 193.31 40.0104 193.449 39.7162C193.588 39.4221 193.657 39.0955 193.648 38.766C193.648 38.0835 193.323 37.5657 192.675 37.2124C192.026 36.8591 190.982 36.4931 189.544 36.1143C188.342 35.8139 187.16 35.4282 186.006 34.9598C185.085 34.5683 184.27 33.9371 183.635 33.1232C182.974 32.2904 182.644 31.1919 182.645 29.8278C182.635 28.6761 182.949 27.5479 183.546 26.5898C184.147 25.6194 185.032 24.8494 186.2 24.2797C187.367 23.71 188.742 23.4262 190.322 23.4285C192.658 23.4285 194.522 24.0531 195.913 25.3023C196.321 25.666 196.685 26.0825 196.997 26.5424C198.067 28.1332 196.979 30.3554 195.147 30.3554C194.73 30.3526 194.322 30.2301 193.965 30.0006C193.607 29.7711 193.314 29.4431 193.116 29.051C192.958 28.7428 192.748 28.4685 192.497 28.2415C191.919 27.7101 191.146 27.4447 190.179 27.4455C189.283 27.4455 188.593 27.6413 188.109 28.0329C187.875 28.2173 187.686 28.4604 187.56 28.7409C187.434 29.0213 187.374 29.3306 187.385 29.6417C187.385 30.3497 187.715 30.8864 188.375 31.2517C189.035 31.617 190.061 31.9894 191.454 32.369C192.645 32.6721 193.816 33.0643 194.956 33.5426C195.872 33.9444 196.685 34.574 197.327 35.3792C197.987 36.2 198.317 37.3045 198.317 38.6927C198.33 39.8596 198.009 41.0028 197.398 41.969C196.784 42.9409 195.9 43.7045 194.744 44.2599C193.589 44.8154 192.22 45.0931 190.636 45.0931C189.035 45.0946 187.603 44.7861 186.341 44.1675Z" fill="#FF6D00"/>
<path d="M11.7808 15.9209C11.0177 15.8719 10.2655 15.7024 9.54871 15.4181C6.52556 14.2095 5.21834 11.312 5.01926 10.8407C3.66779 7.72342 4.39673 4.52716 4.43254 4.52716C4.45129 4.57629 4.46679 4.62678 4.47889 4.67824C6.27928 4.33244 8.13601 4.65041 9.7457 5.58018C12.4844 7.18564 13.3545 9.96248 13.5283 10.5589H13.7875C14.0434 9.48255 14.422 8.44393 14.9145 7.46636C17.1456 3.0446 21.024 1.31287 21.8214 0.978026C26.9924 -1.20129 31.5998 0.88107 32.4878 1.30498C32.4947 3.97611 31.89 6.60836 30.7266 8.97148C30.0945 10.2511 28.2954 13.7473 24.2884 15.736C20.1445 17.7925 16.3187 16.9052 15.1737 16.5906C17.8603 11.9031 21.6691 8.06976 26.2055 5.48773C23.9309 5.88219 21.7562 6.77205 19.8158 8.10223C17.193 9.92326 15.088 12.4805 13.7306 15.4948L13.4725 15.47C12.7681 13.4381 11.7073 11.5691 10.3472 9.96362C9.55294 9.02928 8.66244 8.19418 7.69269 7.47426C9.68346 9.88815 11.0876 12.7901 11.7808 15.9232V15.9209Z" fill="#FF6D00"/>
</svg>
