<?xml version="1.0" encoding="UTF-8" standalone="no"?><!DOCTYPE svg PUBLIC "-//W3C//DTD SVG 1.1//EN" "http://www.w3.org/Graphics/SVG/1.1/DTD/svg11.dtd"><svg width="532px" height="349px" viewBox="0 0 532 349" version="1.1" xmlns="http://www.w3.org/2000/svg" xmlns:xlink="http://www.w3.org/1999/xlink" xml:space="preserve" xmlns:serif="http://www.serif.com/" style="fill-rule:evenodd;clip-rule:evenodd;"><g id="_2-copy-2" serif:id="2-copy-2"><rect id="Rectangle" x="1" y="1" width="530.904" height="343.95" style="fill:#fff;"/><clipPath id="_clip1"><rect id="Rectangle1" serif:id="Rectangle" x="1" y="1" width="530.904" height="343.95"/></clipPath><g clip-path="url(#_clip1)"><rect x="-0.956" y="-1.82" width="534.424" height="350.186" style="fill:#fff;"/></g><rect id="Rectangle2" serif:id="Rectangle" x="1" y="1" width="530.904" height="343.95" style="fill:none;stroke:#d1e3f0;stroke-width:0.77px;"/><g id="Alligon"><text x="158px" y="314px" style="font-family:'Roboto-Regular', 'Roboto';font-size:5.428px;fill:#5d7288;">Alligon</text></g><g id="The-basic-API"><text x="159px" y="274px" style="font-family:'Roboto-Regular', 'Roboto';font-size:5.428px;fill:#5d7288;">The basic API</text></g><g id="GreenApp"><text x="158px" y="328px" style="font-family:'Roboto-Regular', 'Roboto';font-size:5.428px;fill:#5d7288;">GreenApp</text></g><g id="_27-copy" serif:id="27-copy"><text x="245.452px" y="313.936px" style="font-family:'Roboto-Regular', 'Roboto';font-size:5.428px;fill:#5d7288;">27</text></g><g id="_14" serif:id="14"><text x="245.452px" y="274px" style="font-family:'Roboto-Regular', 'Roboto';font-size:5.428px;fill:#5d7288;">14</text></g><g id="_14-copy" serif:id="14-copy"><text x="245.452px" y="327.959px" style="font-family:'Roboto-Regular', 'Roboto';font-size:5.428px;fill:#5d7288;">14</text></g><g id="_-14.6---copy-3" serif:id="(14.6%)-copy-3"><text x="259.856px" y="313.936px" style="font-family:'Roboto-Regular', 'Roboto';font-size:5.428px;fill:#5d7288;">(14.6%)</text></g><g id="_-11.4--" serif:id="(11.4%)"><text x="259.855px" y="274px" style="font-family:'Roboto-Regular', 'Roboto';font-size:5.428px;fill:#5d7288;">(11.4%)</text></g><g id="_-11.4---copy" serif:id="(11.4%)-copy"><text x="259.855px" y="327.959px" style="font-family:'Roboto-Regular', 'Roboto';font-size:5.428px;fill:#5d7288;">(11.4%)</text></g><g id="_16-copy" serif:id="16-copy"><text x="394.453px" y="313.936px" style="font-family:'Roboto-Regular', 'Roboto';font-size:5.428px;fill:#5d7288;">16</text></g><g id="_3" serif:id="3"><text x="397.976px" y="274px" style="font-family:'Roboto-Regular', 'Roboto';font-size:5.428px;fill:#5d7288;">3</text></g><g id="_3-copy" serif:id="3-copy"><text x="397.976px" y="327.959px" style="font-family:'Roboto-Regular', 'Roboto';font-size:5.428px;fill:#5d7288;">3</text></g><g id="_-12.8---copy" serif:id="(12.8%)-copy"><text x="408.855px" y="313.936px" style="font-family:'Roboto-Regular', 'Roboto';font-size:5.428px;fill:#5d7288;">(12.8%)</text></g><g id="_-3.4--" serif:id="(3.4%)"><text x="410.379px" y="274px" style="font-family:'Roboto-Regular', 'Roboto';font-size:5.428px;fill:#5d7288;">(3.4%)</text></g><g id="_-3.4---copy" serif:id="(3.4%)-copy"><text x="410.379px" y="327.959px" style="font-family:'Roboto-Regular', 'Roboto';font-size:5.428px;fill:#5d7288;">(3.4%)</text></g><g id="_6.4-copy" serif:id="6.4-copy"><text x="300.239px" y="313.936px" style="font-family:'Roboto-Regular', 'Roboto';font-size:5.428px;fill:#5d7288;">6.4</text></g><g id="_2.4" serif:id="2.4"><text x="300.238px" y="274px" style="font-family:'Roboto-Regular', 'Roboto';font-size:5.428px;fill:#5d7288;">2.4</text></g><g id="_2.4-copy" serif:id="2.4-copy"><text x="300.238px" y="327.959px" style="font-family:'Roboto-Regular', 'Roboto';font-size:5.428px;fill:#5d7288;">2.4</text></g><g id="R-D" serif:id="R&amp;D"><text x="159px" y="287px" style="font-family:'Roboto-Regular', 'Roboto';font-size:5.428px;fill:#5d7288;">R&amp;D</text></g><g id="_11" serif:id="11"><text x="245.452px" y="287.118px" style="font-family:'Roboto-Regular', 'Roboto';font-size:5.428px;fill:#5d7288;">11</text></g><g id="_-14.6---copy" serif:id="(14.6%)-copy"><text x="259.856px" y="287.118px" style="font-family:'Roboto-Regular', 'Roboto';font-size:5.428px;fill:#5d7288;">(14.6%)</text></g><g id="_2" serif:id="2"><text x="397.976px" y="287.118px" style="font-family:'Roboto-Regular', 'Roboto';font-size:5.428px;fill:#5d7288;">2</text></g><g id="_-2.8--" serif:id="(2.8%)"><text x="410.379px" y="287.118px" style="font-family:'Roboto-Regular', 'Roboto';font-size:5.428px;fill:#5d7288;">(2.8%)</text></g><g id="_1.6" serif:id="1.6"><text x="300.239px" y="287.118px" style="font-family:'Roboto-Regular', 'Roboto';font-size:5.428px;fill:#5d7288;">1.6</text></g><g id="Catalog-management"><text x="159px" y="300px" style="font-family:'Roboto-Regular', 'Roboto';font-size:5.428px;fill:#5d7288;">Catalog management</text></g><g id="_11-copy" serif:id="11-copy"><text x="245.452px" y="300.236px" style="font-family:'Roboto-Regular', 'Roboto';font-size:5.428px;fill:#5d7288;">11</text></g><g id="_-14.6---copy-2" serif:id="(14.6%)-copy-2"><text x="259.856px" y="300.236px" style="font-family:'Roboto-Regular', 'Roboto';font-size:5.428px;fill:#5d7288;">(14.6%)</text></g><g id="_2-copy" serif:id="2-copy"><text x="397.976px" y="300.236px" style="font-family:'Roboto-Regular', 'Roboto';font-size:5.428px;fill:#5d7288;">2</text></g><g id="_47.1--copy" serif:id="47.1%-copy"><text x="465.226px" y="313.936px" style="font-family:'Roboto-Regular', 'Roboto';font-size:5.428px;fill:#5d7288;">47.1%</text></g><g id="_39.5-" serif:id="39.5%"><text x="465.226px" y="274px" style="font-family:'Roboto-Regular', 'Roboto';font-size:5.428px;fill:#5d7288;">39.5%</text></g><g id="_39.5--copy" serif:id="39.5%-copy"><text x="465.226px" y="327.959px" style="font-family:'Roboto-Regular', 'Roboto';font-size:5.428px;fill:#5d7288;">39.5%</text></g><g id="_46.1-" serif:id="46.1%"><text x="465.227px" y="287.118px" style="font-family:'Roboto-Regular', 'Roboto';font-size:5.428px;fill:#5d7288;">46.1%</text></g><g id="_84.9-" serif:id="84.9%"><text x="465.226px" y="300.236px" style="font-family:'Roboto-Regular', 'Roboto';font-size:5.428px;fill:#5d7288;">84.9%</text></g><g id="_-2.8---copy" serif:id="(2.8%)-copy"><text x="410.379px" y="300.236px" style="font-family:'Roboto-Regular', 'Roboto';font-size:5.428px;fill:#5d7288;">(2.8%)</text></g><g id="_3.9" serif:id="3.9"><text x="300.238px" y="300.236px" style="font-family:'Roboto-Regular', 'Roboto';font-size:5.428px;fill:#5d7288;">3.9</text></g><g id="_06:16-copy" serif:id="06:16-copy"><text x="342.249px" y="313.936px" style="font-family:'Roboto-Regular', 'Roboto';font-size:5.428px;fill:#5d7288;">06:16</text></g><g id="_02:11" serif:id="02:11"><text x="342.247px" y="274px" style="font-family:'Roboto-Regular', 'Roboto';font-size:5.428px;fill:#5d7288;">02:11</text></g><g id="_02:11-copy" serif:id="02:11-copy"><text x="342.247px" y="327.959px" style="font-family:'Roboto-Regular', 'Roboto';font-size:5.428px;fill:#5d7288;">02:11</text></g><g id="_01:37" serif:id="01:37"><text x="342.247px" y="287.118px" style="font-family:'Roboto-Regular', 'Roboto';font-size:5.428px;fill:#5d7288;">01:37</text></g><g id="_07:25" serif:id="07:25"><text x="342.247px" y="300.236px" style="font-family:'Roboto-Regular', 'Roboto';font-size:5.428px;fill:#5d7288;">07:25</text></g><rect id="Base" x="1" y="320.037" width="137.888" height="25.808" style="fill:#31b7aa;stroke:#d1e3f0;stroke-width:0.77px;"/><g id="Add-project"><text x="52.112px" y="334.556px" style="font-family:'Poppins-SemiBold', 'Poppins';font-weight:600;font-size:5.899px;fill:#fff;">Add project</text></g><path id="Rectangle-10-Copy-2" d="M19.065,231.434c0,-1.933 -1.569,-3.503 -3.502,-3.503c-1.933,0 -3.503,1.57 -3.503,3.503c0,1.933 1.57,3.502 3.503,3.502c1.933,0 3.502,-1.569 3.502,-3.502Z" style="fill:#8ea9bd;"/><path id="Shape-Copy-2" d="M17.222,230.512l-2.281,2.212l-1.037,-1.005" style="fill:none;stroke:#fff;stroke-width:0.54px;stroke-linecap:round;stroke-linejoin:round;"/><g id="PR489"><text x="30.126px" y="233.109px" style="font-family:'Poppins-Regular', 'Poppins';font-size:4.793px;fill:#9cb2cd;">PR489</text></g><g id="Alligon1" serif:id="Alligon"><text x="55.934px" y="233.109px" style="font-family:'Poppins-Regular', 'Poppins';font-size:5.162px;fill:#9cb2cd;">Alligon</text></g><g id="PR689"><text x="30.126px" y="250.806px" style="font-family:'Poppins-Regular', 'Poppins';font-size:4.793px;fill:#9cb2cd;">PR689</text></g><g id="GreenApp1" serif:id="GreenApp"><text x="55.934px" y="250.806px" style="font-family:'Poppins-Regular', 'Poppins';font-size:5.162px;fill:#9cb2cd;">GreenApp</text></g><path id="Rectangle-10-Copy-21" serif:id="Rectangle-10-Copy-2" d="M19.065,248.571c0,-1.933 -1.569,-3.503 -3.502,-3.503c-1.933,0 -3.503,1.57 -3.503,3.503c0,1.933 1.57,3.502 3.503,3.502c1.933,0 3.502,-1.569 3.502,-3.502Z" style="fill:#8ea9bd;"/><path id="Shape-Copy-21" serif:id="Shape-Copy-2" d="M17.222,247.649l-2.281,2.212l-1.037,-1.005" style="fill:none;stroke:#fff;stroke-width:0.54px;stroke-linecap:round;stroke-linejoin:round;"/><g id="PR511"><text x="30.126px" y="215.781px" style="font-family:'Poppins-Regular', 'Poppins';font-size:4.793px;fill:#9cb2cd;">PR511</text></g><g id="Basgram"><text x="55.934px" y="215.781px" style="font-family:'Poppins-Regular', 'Poppins';font-size:5.162px;fill:#9cb2cd;">Basgram</text></g><path id="Rectangle-10-Copy" d="M19.065,214.106c0,-1.933 -1.569,-3.503 -3.502,-3.503c-1.933,0 -3.503,1.57 -3.503,3.503c0,1.933 1.57,3.502 3.503,3.502c1.933,0 3.502,-1.569 3.502,-3.502Z" style="fill:#8ea9bd;"/><path id="Shape-Copy" d="M17.222,213.184l-2.281,2.212l-1.037,-1.005" style="fill:none;stroke:#fff;stroke-width:0.54px;stroke-linecap:round;stroke-linejoin:round;"/><g id="PR689-Copy-3"><text x="30.126px" y="198.453px" style="font-family:'Poppins-Regular', 'Poppins';font-size:4.793px;fill:#9cb2cd;">PR689</text></g><g id="Huntswood"><text x="55.934px" y="198.453px" style="font-family:'Poppins-Regular', 'Poppins';font-size:5.162px;fill:#9cb2cd;">Huntswood</text></g><path id="Rectangle-10" d="M19.065,196.778c0,-1.934 -1.569,-3.503 -3.502,-3.503c-1.933,0 -3.503,1.569 -3.503,3.503c0,1.933 1.57,3.502 3.503,3.502c1.933,0 3.502,-1.569 3.502,-3.502Z" style="fill:#8ea9bd;"/><path id="Shape" d="M17.222,195.856l-2.281,2.212l-1.037,-1.006" style="fill:none;stroke:#fff;stroke-width:0.54px;stroke-linecap:round;stroke-linejoin:round;"/><path id="Rectangle3" serif:id="Rectangle" d="M128.196,194.19c0,-0.407 -0.331,-0.737 -0.738,-0.737c-0.407,0 -0.737,0.33 -0.737,0.737l0,12.167c0,0.407 0.33,0.737 0.737,0.737c0.407,0 0.738,-0.33 0.738,-0.737l0,-12.167Z" style="fill:#9cb2cd;fill-opacity:0.5;"/><path id="Arrow-Copy" d="M126.033,182.108c-0.021,0.021 -0.045,0.039 -0.069,0.053c-0.126,0.074 -0.288,0.058 -0.398,-0.053l-1.879,-1.879c-0.113,-0.113 -0.124,-0.29 -0.041,-0.417l0.042,-0.051c0.129,-0.13 0.335,-0.134 0.468,-0.001l1.642,1.644l1.645,-1.644c0.113,-0.113 0.29,-0.124 0.417,-0.04l0.051,0.041c0.129,0.13 0.134,0.336 0.001,0.468l-1.879,1.879Z" style="fill:#9cb2cd;"/><g id="Projects"><text x="12.429px" y="182.387px" style="font-family:'Poppins-Regular', 'Poppins';font-size:6.268px;fill:#273142;">Project<tspan x="34.042px " y="182.387px ">s</tspan></text></g><path id="Rectangle4" serif:id="Rectangle" d="M18.697,114.554l102.862,0c3.666,0 6.637,2.972 6.637,6.637c0,3.665 -2.971,6.636 -6.637,6.636l-102.862,0c-3.665,0 -6.637,-2.971 -6.637,-6.636c0,-3.665 2.972,-6.637 6.637,-6.637Z" style="fill:#cfe3f2;"/><g id="_4" serif:id="4"><text x="18.249px" y="122.716px" style="font-family:'Poppins-Regular', 'Poppins';font-size:4.793px;fill:#273142;">4</text></g><g id="_5" serif:id="5"><text x="35.073px" y="122.716px" style="font-family:'Poppins-Regular', 'Poppins';font-size:4.793px;fill:#273142;">5</text></g><g id="_6" serif:id="6"><text x="52.016px" y="122.716px" style="font-family:'Poppins-Regular', 'Poppins';font-size:4.793px;fill:#273142;">6</text></g><g id="_8" serif:id="8"><text x="86.313px" y="122.504px" style="font-family:'Poppins-Regular', 'Poppins';font-size:4.793px;fill:#273142;">8</text></g><g id="_9" serif:id="9"><text x="102.906px" y="122.504px" style="font-family:'Poppins-Regular', 'Poppins';font-size:4.793px;fill:#273142;">9</text></g><g id="_10" serif:id="10"><text x="118.66px" y="122.504px" style="font-family:'Poppins-Regular', 'Poppins';font-size:4.793px;fill:#273142;">10</text></g><path id="Rectangle-Copy-18" d="M69.944,114.554c3.665,0 6.636,2.972 6.636,6.637c0,3.665 -2.971,6.636 -6.636,6.636c-3.665,0 -6.637,-2.971 -6.637,-6.636c0,-3.665 2.972,-6.637 6.637,-6.637Z" style="fill:#8494a5;"/><g id="_7" serif:id="7"><text x="68.851px" y="122.791px" style="font-family:'Poppins-Regular', 'Poppins';font-size:4.793px;fill:#fff;">7</text></g><g id="_27" serif:id="27"><text x="17.07px" y="110.022px" style="font-family:'Poppins-Regular', 'Poppins';font-size:4.793px;fill:#d8e3f1;">27</text></g><g id="_28" serif:id="28"><text x="33.688px" y="110.022px" style="font-family:'Poppins-Regular', 'Poppins';font-size:4.793px;fill:#d8e3f1;">28</text></g><g id="_29" serif:id="29"><text x="50.65px" y="110.022px" style="font-family:'Poppins-Regular', 'Poppins';font-size:4.793px;fill:#d8e3f1;">29</text></g><g id="_1" serif:id="1"><text x="67.58px" y="109.81px" style="font-family:'Poppins-Regular', 'Poppins';font-size:4.793px;fill:#d8e3f1;">30</text></g><g id="_12" serif:id="1"><text x="87.058px" y="109.81px" style="font-family:'Poppins-Regular', 'Poppins';font-size:4.793px;fill:#273142;">1</text></g><g id="_21" serif:id="2"><text x="103.038px" y="109.81px" style="font-family:'Poppins-Regular', 'Poppins';font-size:4.793px;fill:#273142;">2</text></g><g id="_31" serif:id="3"><text x="119.52px" y="109.81px" style="font-family:'Poppins-Regular', 'Poppins';font-size:4.793px;fill:#273142;">3</text></g><g id="_111" serif:id="11"><text x="18.222px" y="135.62px" style="font-family:'Poppins-Regular', 'Poppins';font-size:4.793px;fill:#273142;">11</text></g><g id="_121" serif:id="12"><text x="34.433px" y="135.62px" style="font-family:'Poppins-Regular', 'Poppins';font-size:4.793px;fill:#273142;">12</text></g><g id="_13" serif:id="13"><text x="51.359px" y="135.62px" style="font-family:'Poppins-Regular', 'Poppins';font-size:4.793px;fill:#273142;">13</text></g><g id="_1-copy" serif:id="1-copy"><text x="68.223px" y="135.408px" style="font-family:'Poppins-Regular', 'Poppins';font-size:4.793px;fill:#273142;">14</text></g><g id="_15" serif:id="15"><text x="85.553px" y="135.408px" style="font-family:'Poppins-Regular', 'Poppins';font-size:4.793px;fill:#273142;">15</text></g><g id="_16" serif:id="16"><text x="102.127px" y="135.408px" style="font-family:'Poppins-Regular', 'Poppins';font-size:4.793px;fill:#273142;">16</text></g><g id="_17" serif:id="17"><text x="118.856px" y="135.408px" style="font-family:'Poppins-Regular', 'Poppins';font-size:4.793px;fill:#273142;">17</text></g><g id="_18" serif:id="18"><text x="17.477px" y="148.524px" style="font-family:'Poppins-Regular', 'Poppins';font-size:4.793px;fill:#273142;">18</text></g><g id="_19" serif:id="19"><text x="34.301px" y="148.524px" style="font-family:'Poppins-Regular', 'Poppins';font-size:4.793px;fill:#273142;">19</text></g><g id="_20" serif:id="20"><text x="50.654px" y="148.524px" style="font-family:'Poppins-Regular', 'Poppins';font-size:4.793px;fill:#273142;">20</text></g><g id="_1-copy1" serif:id="1-copy"><text x="68.352px" y="148.312px" style="font-family:'Poppins-Regular', 'Poppins';font-size:4.793px;fill:#273142;">21</text></g><g id="_22" serif:id="22"><text x="85.069px" y="148.312px" style="font-family:'Poppins-Regular', 'Poppins';font-size:4.793px;fill:#273142;">22</text></g><g id="_23" serif:id="23"><text x="101.626px" y="148.312px" style="font-family:'Poppins-Regular', 'Poppins';font-size:4.793px;fill:#273142;">23</text></g><g id="_24" serif:id="24"><text x="118.046px" y="148.312px" style="font-family:'Poppins-Regular', 'Poppins';font-size:4.793px;fill:#273142;">24</text></g><g id="_25" serif:id="25"><text x="16.873px" y="161.427px" style="font-family:'Poppins-Regular', 'Poppins';font-size:4.793px;fill:#273142;">25</text></g><g id="_26" serif:id="26"><text x="33.678px" y="161.427px" style="font-family:'Poppins-Regular', 'Poppins';font-size:4.793px;fill:#273142;">26</text></g><g id="_271" serif:id="27"><text x="50.851px" y="161.427px" style="font-family:'Poppins-Regular', 'Poppins';font-size:4.793px;fill:#273142;">27</text></g><g id="_1-copy2" serif:id="1-copy"><text x="67.607px" y="161.216px" style="font-family:'Poppins-Regular', 'Poppins';font-size:4.793px;fill:#273142;">28</text></g><g id="_291" serif:id="29"><text x="84.937px" y="161.216px" style="font-family:'Poppins-Regular', 'Poppins';font-size:4.793px;fill:#273142;">29</text></g><g id="_30" serif:id="30"><text x="101.499px" y="161.216px" style="font-family:'Poppins-Regular', 'Poppins';font-size:4.793px;fill:#273142;">30</text></g><g id="_311" serif:id="31"><text x="118.753px" y="161.216px" style="font-family:'Poppins-Regular', 'Poppins';font-size:4.793px;fill:#273142;">31</text></g><g id="Mon"><text x="14.388px" y="96.036px" style="font-family:'Poppins-Regular', 'Poppins';font-size:4.793px;fill:#9cb2cd;">Mon</text></g><g id="Tue"><text x="32.373px" y="96.036px" style="font-family:'Poppins-Regular', 'Poppins';font-size:4.793px;fill:#9cb2cd;">Tue</text></g><g id="Wed"><text x="48.229px" y="96.036px" style="font-family:'Poppins-Regular', 'Poppins';font-size:4.793px;fill:#9cb2cd;">Wed</text></g><g id="Thu"><text x="66.48px" y="96.036px" style="font-family:'Poppins-Regular', 'Poppins';font-size:4.793px;fill:#9cb2cd;">Thu</text></g><g id="Fri"><text x="85.323px" y="96.036px" style="font-family:'Poppins-Regular', 'Poppins';font-size:4.793px;fill:#9cb2cd;">Fri</text></g><g id="Sat"><text x="100.363px" y="96.036px" style="font-family:'Poppins-Regular', 'Poppins';font-size:4.793px;fill:#9cb2cd;">Sat</text></g><g id="Sun"><text x="117.754px" y="96.036px" style="font-family:'Poppins-Regular', 'Poppins';font-size:4.793px;fill:#9cb2cd;">Su</text><text x="119.161px" y="103.524px" style="font-family:'Poppins-Regular', 'Poppins';font-size:4.793px;fill:#9cb2cd;">n</text></g><g id="June-2017"><text x="54.998px" y="81.546px" style="font-family:'Poppins-Regular', 'Poppins';font-size:6.268px;fill:#273142;">June 20<tspan x="79.55px " y="81.546px ">1</tspan>7</text></g><path id="Base1" serif:id="Base" d="M115.66,79.53c0,-2.849 2.313,-5.162 5.162,-5.162c2.849,0 5.162,2.313 5.162,5.162c0,2.848 -2.313,5.161 -5.162,5.161c-2.849,0 -5.162,-2.313 -5.162,-5.161Z" style="fill:#8394a6;"/><path id="Arrow" d="M122.145,79.728l0.005,-0.006l0.035,-0.044c0.068,-0.108 0.057,-0.25 -0.04,-0.347l-1.594,-1.594c-0.094,-0.094 -0.24,-0.105 -0.347,-0.039l-0.05,0.04c-0.11,0.11 -0.114,0.284 -0.001,0.397l1.394,1.394l-1.394,1.395c-0.094,0.094 -0.105,0.24 -0.039,0.347l0.04,0.05c0.11,0.11 0.284,0.114 0.397,0.001l1.594,-1.594Z" style="fill:#fff;"/><path id="Base2" serif:id="Base" d="M23.49,79.53c0,-2.849 -2.313,-5.162 -5.162,-5.162c-2.849,0 -5.161,2.313 -5.161,5.162c0,2.848 2.312,5.161 5.161,5.161c2.849,0 5.162,-2.313 5.162,-5.161Z" style="fill:#8394a6;"/><path id="Arrow1" serif:id="Arrow" d="M17.005,79.728l-0.004,-0.006l-0.036,-0.044c-0.068,-0.108 -0.057,-0.25 0.04,-0.347l1.594,-1.594c0.094,-0.094 0.24,-0.105 0.348,-0.039l0.049,0.04c0.11,0.11 0.114,0.284 0.001,0.397l-1.394,1.394l1.394,1.395c0.094,0.094 0.105,0.24 0.039,0.347l-0.04,0.05c-0.11,0.11 -0.284,0.114 -0.397,0.001l-1.594,-1.594Z" style="fill:#fff;"/><path id="Active-State-Copy-2" d="M12.06,60.357c0,-3.461 2.814,-6.267 6.265,-6.267l103.606,0c3.46,0 6.265,2.815 6.265,6.267l0,0.739c0,3.461 -2.814,6.267 -6.265,6.267l-103.606,0c-3.46,0 -6.265,-2.815 -6.265,-6.267l0,-0.739Z" style="fill:#cfe3f2;"/><path id="Active-State" d="M89.115,60.358c0,-3.459 -2.808,-6.268 -6.267,-6.268l-25.808,0c-3.459,0 -6.268,2.809 -6.268,6.268l0,0.737c0,3.46 2.809,6.268 6.268,6.268l25.808,0c3.459,0 6.267,-2.808 6.267,-6.268l0,-0.737Z" style="fill:#8fa9bc;"/><g id="Day"><text x="26.394px" y="62.04px" style="font-family:'Poppins-Regular', 'Poppins';font-size:5.162px;fill:#273142;">Day</text></g><g id="Week"><text x="63.08px" y="62.04px" style="font-family:'Poppins-Regular', 'Poppins';font-size:5.162px;fill:#fff;">Week</text></g><g id="Month"><text x="100.355px" y="62.04px" style="font-family:'Poppins-Regular', 'Poppins';font-size:5.162px;fill:#273142;">Month</text></g><path id="Arrow2" serif:id="Arrow" d="M126.033,44.221c-0.021,0.021 -0.045,0.038 -0.069,0.052c-0.126,0.074 -0.288,0.059 -0.398,-0.052l-1.879,-1.879c-0.113,-0.113 -0.124,-0.291 -0.041,-0.418l0.042,-0.05c0.129,-0.13 0.335,-0.134 0.468,-0.002l1.642,1.644l1.645,-1.644c0.113,-0.112 0.29,-0.123 0.417,-0.04l0.051,0.042c0.129,0.129 0.134,0.335 0.001,0.468l-1.879,1.879Z" style="fill:#9cb2cd;"/><g id="Calendar"><text x="12.429px" y="44.868px" style="font-family:'Poppins-Regular', 'Poppins';font-size:6.268px;fill:#273142;">Calenda<tspan x="39.526px " y="44.868px ">r</tspan></text></g><g id="_-5-" serif:id="-5%"><text x="401.759px" y="123.135px" style="font-family:'OpenSans-Semibold', 'Open Sans', sans-serif;font-weight:600;font-size:5.678px;fill:#fc297d;">-5%</text></g><g id="_-3-" serif:id="+3%"><text x="423.511px" y="159.266px" style="font-family:'OpenSans-Semibold', 'Open Sans', sans-serif;font-weight:600;font-size:5.678px;fill:#4cd964;">+3%</text></g><g id="_-3-1" serif:id="+3%"><text x="326.547px" y="195.397px" style="font-family:'OpenSans-Semibold', 'Open Sans', sans-serif;font-weight:600;font-size:5.678px;fill:#4cd964;">+3%</text></g><g id="_-10-" serif:id="+10%"><text x="488.768px" y="222.68px" style="font-family:'OpenSans-Semibold', 'Open Sans', sans-serif;font-weight:600;font-size:5.678px;fill:#4cd964;">+10%</text></g><path id="Page-1" d="M396.687,120.737l-0.827,-0.822l0.458,-0.456l0.878,0.872l0.007,-2.09l0.65,0l-0.007,2.081l0.433,-0.43c0.238,-0.237 0.435,-0.431 0.438,-0.431c0.002,0 0.107,0.102 0.233,0.227l0.228,0.227l-0.828,0.822c-0.454,0.452 -0.829,0.822 -0.831,0.822c-0.002,0 -0.377,-0.37 -0.832,-0.822Z" style="fill:#fc297d;"/><path id="Page-1-Copy" d="M418.439,154.826l-0.827,0.822l0.459,0.456l0.877,-0.872l0.007,2.09l0.65,0l-0.007,-2.082l0.433,0.431c0.239,0.237 0.436,0.431 0.438,0.431c0.003,0 0.107,-0.102 0.233,-0.227l0.228,-0.227l-0.827,-0.822c-0.455,-0.452 -0.829,-0.822 -0.832,-0.822c-0.002,0 -0.377,0.37 -0.832,0.822Z" style="fill:#4cd964;"/><path id="Page-1-Copy-5" d="M320.738,190.588l-0.827,0.823l0.459,0.456l0.877,-0.873l0.007,2.09l0.65,0l-0.007,-2.081l0.433,0.431c0.239,0.236 0.436,0.43 0.438,0.43c0.003,0 0.107,-0.102 0.233,-0.226l0.228,-0.227l-0.827,-0.823c-0.455,-0.452 -0.829,-0.822 -0.832,-0.822c-0.002,0 -0.377,0.37 -0.832,0.822Z" style="fill:#4cd964;"/><path id="Page-1-Copy-6" d="M483.696,217.871l-0.827,0.822l0.459,0.456l0.877,-0.872l0.007,2.089l0.65,0l-0.007,-2.081l0.433,0.431c0.239,0.237 0.436,0.431 0.438,0.431c0.003,0 0.107,-0.102 0.233,-0.227l0.228,-0.227l-0.827,-0.822c-0.455,-0.453 -0.829,-0.823 -0.832,-0.823c-0.002,0 -0.377,0.37 -0.832,0.823Z" style="fill:#4cd964;"/><path id="Line" d="M245.068,95.165l0,146.585" style="fill:none;stroke:#8494a5;stroke-opacity:0.46;stroke-width:0.81px;stroke-linecap:square;stroke-dasharray:2.43,3.65;"/><g id="Jan"><text x="186.453px" y="86.742px" style="font-family:'OpenSans', 'Open Sans', sans-serif;font-size:4.867px;fill:#8494a5;">Jan</text></g><g id="Feb"><text x="252.57px" y="86.742px" style="font-family:'OpenSans', 'Open Sans', sans-serif;font-size:4.867px;fill:#8494a5;">Feb</text></g><g id="Mar"><text x="315.921px" y="86.742px" style="font-family:'OpenSans', 'Open Sans', sans-serif;font-size:4.867px;fill:#8494a5;">Mar</text></g><g id="Apr"><text x="382.987px" y="86.742px" style="font-family:'OpenSans', 'Open Sans', sans-serif;font-size:4.867px;fill:#8494a5;">Apr</text></g><g id="May"><text x="447.123px" y="86.742px" style="font-family:'OpenSans', 'Open Sans', sans-serif;font-size:4.867px;fill:#8494a5;">May</text></g><g id="Jun"><text x="513.888px" y="86.742px" style="font-family:'OpenSans', 'Open Sans', sans-serif;font-size:4.867px;fill:#8494a5;">Jun</text></g><rect id="Rectangle-4" x="158.428" y="245.366" width="358.733" height="18.803" style="fill:#fff;"/><g id="Desktop"><text x="166.17px" y="257.371px" style="font-family:'OpenSans-Semibold', 'Open Sans', sans-serif;font-weight:600;font-size:4.867px;fill:#8494a5;">Desktop</text></g><g id="Mobile"><text x="204.513px" y="257.371px" style="font-family:'OpenSans-Semibold', 'Open Sans', sans-serif;font-weight:600;font-size:4.867px;fill:#8494a5;">Mobile</text></g><g id="Application"><text x="241.013px" y="257.371px" style="font-family:'OpenSans-Semibold', 'Open Sans', sans-serif;font-weight:600;font-size:4.867px;fill:#8494a5;">Application</text></g><circle id="Oval-2" cx="160.455" cy="255.873" r="2.028" style="fill:#64ddff;"/><circle id="Oval-2-Copy" cx="199.167" cy="255.505" r="2.028" style="fill:#72ecb2;"/><circle id="Oval-2-Copy-2" cx="235.298" cy="255.505" r="2.028" style="fill:#af9cf6;"/><g id="TIME-TO-LAUNCH:"><text x="158.428px" y="50.762px" style="font-family:'OpenSans-Extrabold', 'Open Sans', sans-serif;font-weight:800;font-size:13.273px;fill:#cfe3f2;">TIME T<tspan x="202.03px 212.607px " y="50.762px 50.762px ">O </tspan>LAUNCH:</text></g><path id="Page-11" serif:id="Page-1" d="M402.823,46.15c-0.057,0 -0.11,-0.022 -0.15,-0.062l-1.59,-1.59c-0.082,-0.083 -0.082,-0.217 0,-0.3c0.083,-0.083 0.217,-0.083 0.3,0l1.44,1.44l1.44,-1.44c0.082,-0.083 0.216,-0.083 0.299,0c0.083,0.083 0.083,0.217 0,0.3l-1.589,1.59c-0.04,0.04 -0.094,0.062 -0.15,0.062Z" style="fill:#8494a5;"/><path id="Page-1-Copy-4" d="M471.398,46.15c-0.056,0 -0.11,-0.022 -0.15,-0.062l-1.59,-1.59c-0.082,-0.083 -0.082,-0.217 0,-0.3c0.083,-0.083 0.217,-0.083 0.3,0l1.44,1.44l1.44,-1.44c0.082,-0.083 0.217,-0.083 0.299,0c0.083,0.083 0.083,0.217 0,0.3l-1.589,1.59c-0.04,0.04 -0.094,0.062 -0.15,0.062Z" style="fill:#8494a5;"/><path id="Rectangle-12" d="M410.976,45.058c0,-3.765 -3.057,-6.821 -6.821,-6.821l-51.247,0c-3.764,0 -6.821,3.056 -6.821,6.821c0,3.764 3.057,6.82 6.821,6.82l51.247,0c3.764,0 6.821,-3.056 6.821,-6.82Z" style="fill:#d8d8d8;fill-opacity:0;stroke:#8494a5;stroke-opacity:0.08;stroke-width:0.74px;"/><path id="Rectangle-12-Copy" d="M479.919,45.058c0,-3.765 -3.056,-6.821 -6.82,-6.821l-46.454,0c-3.765,0 -6.821,3.056 -6.821,6.821c0,3.764 3.056,6.82 6.821,6.82l46.454,0c3.764,0 6.82,-3.056 6.82,-6.82Z" style="fill:#d8d8d8;fill-opacity:0;stroke:#8494a5;stroke-opacity:0.08;stroke-width:0.74px;"/><g id="_68" serif:id="68"><text x="159.534px" y="66.04px" style="font-family:'OpenSans-Bold', 'Open Sans', sans-serif;font-weight:700;font-size:8.848px;fill:#8494a5;">68</text></g><g id="FROM"><text x="353.868px" y="46.924px" style="font-family:'OpenSans', 'Open Sans', sans-serif;font-size:4.424px;fill:#8494a5;">FROM</text></g><g id="TO"><text x="427.938px" y="46.924px" style="font-family:'OpenSans', 'Open Sans', sans-serif;font-size:4.424px;fill:#8494a5;">TO</text></g><g id="_10-02-2017" serif:id="10-02-2017"><text x="370.878px" y="46.924px" style="font-family:'OpenSans-Bold', 'Open Sans', sans-serif;font-weight:700;font-size:4.424px;fill:#597390;">10-02-2017</text></g><g id="_10-02-2017-copy" serif:id="10-02-2017-copy"><text x="438.347px" y="46.924px" style="font-family:'OpenSans-Bold', 'Open Sans', sans-serif;font-weight:700;font-size:4.424px;fill:#597390;">10-02-2017</text></g><g id="_181" serif:id="18"><text x="194.927px" y="66.04px" style="font-family:'OpenSans-Bold', 'Open Sans', sans-serif;font-weight:700;font-size:8.848px;fill:#8494a5;">18</text></g><g id=":"><text x="238.063px" y="66.04px" style="font-family:'OpenSans', 'Open Sans', sans-serif;font-size:8.848px;fill:#8494a5;">:</text></g><g id=":-copy"><text x="212.993px" y="66.04px" style="font-family:'OpenSans', 'Open Sans', sans-serif;font-size:8.848px;fill:#8494a5;">:</text></g><g id="_35" serif:id="35"><text x="218.154px" y="66.04px" style="font-family:'OpenSans-Bold', 'Open Sans', sans-serif;font-weight:700;font-size:8.848px;fill:#8494a5;">35</text></g><g id="_51" serif:id="51"><text x="243.225px" y="66.04px" style="font-family:'OpenSans-Bold', 'Open Sans', sans-serif;font-weight:700;font-size:8.848px;fill:#8494a5;">51</text></g><g id="days"><text x="172.069px" y="66.358px" style="font-family:'OpenSans-Bold', 'Open Sans', sans-serif;font-weight:700;font-size:5.899px;fill:#c3cbd3;">days</text></g><g id="h"><text x="206.725px" y="66.358px" style="font-family:'OpenSans-Bold', 'Open Sans', sans-serif;font-weight:700;font-size:5.899px;fill:#c3cbd3;">h</text></g><g id="m"><text x="229.952px" y="66.358px" style="font-family:'OpenSans-Bold', 'Open Sans', sans-serif;font-weight:700;font-size:5.899px;fill:#c3cbd3;">m</text></g><g id="s"><text x="255.023px" y="66.358px" style="font-family:'OpenSans-Bold', 'Open Sans', sans-serif;font-weight:700;font-size:5.899px;fill:#c3cbd3;">s</text></g><rect id="Rectangle-11" x="158.678" y="95.264" width="32.313" height="146.5" style="fill:none;stroke:#f5f5f5;stroke-width:0.5px;"/><rect id="Rectangle-11-Copy-4" x="288.823" y="95.264" width="32.313" height="146.5" style="fill:none;stroke:#f5f5f5;stroke-width:0.5px;"/><rect id="Rectangle-11-Copy-8" x="419.337" y="95.264" width="32.313" height="146.5" style="fill:none;stroke:#f5f5f5;stroke-width:0.5px;"/><rect id="Rectangle-11-Copy-2" x="223.566" y="95.264" width="32.313" height="146.5" style="fill:none;stroke:#f5f5f5;stroke-width:0.5px;"/><rect id="Rectangle-11-Copy-5" x="354.08" y="95.264" width="32.313" height="146.5" style="fill:none;stroke:#f5f5f5;stroke-width:0.5px;"/><rect id="Rectangle-11-Copy-9" x="484.225" y="95.264" width="32.313" height="146.5" style="fill:none;stroke:#f5f5f5;stroke-width:0.5px;"/><rect id="Rectangle-11-Copy" x="191.122" y="95.264" width="32.313" height="146.5" style="fill:none;stroke:#f5f5f5;stroke-width:0.5px;"/><rect id="Rectangle-11-Copy-6" x="321.636" y="95.264" width="32.313" height="146.5" style="fill:none;stroke:#f5f5f5;stroke-width:0.5px;"/><rect id="Rectangle-11-Copy-10" x="451.781" y="95.264" width="32.313" height="146.5" style="fill:none;stroke:#f5f5f5;stroke-width:0.5px;"/><rect id="Rectangle-11-Copy-3" x="256.379" y="95.264" width="32.313" height="146.5" style="fill:none;stroke:#f5f5f5;stroke-width:0.5px;"/><rect id="Rectangle-11-Copy-7" x="386.524" y="95.264" width="32.313" height="146.5" style="fill:none;stroke:#f5f5f5;stroke-width:0.5px;"/><path id="Rectangle-14-Copy-7" d="M475.864,218.707c0,-5.799 -4.708,-10.507 -10.508,-10.507l-144.523,0c-5.8,0 -10.508,4.708 -10.508,10.507c0,5.8 4.708,10.508 10.508,10.508l144.523,0c5.8,0 10.508,-4.708 10.508,-10.508Z" style="fill:#d6e0e7;"/><path id="Rectangle-14-Copy-9" d="M386.643,218.707c0,-5.392 -4.378,-9.77 -9.77,-9.77l-56.04,0c-5.393,0 -9.77,4.378 -9.77,9.77c0,5.393 4.377,9.771 9.77,9.771l56.04,0c5.392,0 9.77,-4.378 9.77,-9.771Z" style="fill:#806fbd;"/><g id="The-basic-API-for-ca"><text x="321.386px" y="220.73px" style="font-family:'OpenSans-Extrabold', 'Open Sans', sans-serif;font-weight:800;font-size:6.489px;fill:#fff;">The basic API for catalog management</text></g><path id="Rectangle-14-Copy" d="M406.92,155.294c0,-5.799 -4.708,-10.508 -10.507,-10.508l-184.711,0c-5.799,0 -10.507,4.709 -10.507,10.508c0,5.799 4.708,10.507 10.507,10.507l184.711,0c5.799,0 10.507,-4.708 10.507,-10.507Z" style="fill:#d6e0e7;"/><path id="Rectangle-14-Copy-2" d="M271.564,155.195c0,-5.243 -4.257,-9.5 -9.5,-9.5l-50,0c-5.244,0 -9.5,4.257 -9.5,9.5c0,5.244 4.256,9.5 9.5,9.5l50,0c5.243,0 9.5,-4.256 9.5,-9.5Z" style="fill:#3ab6aa;"/><g id="R-D1" serif:id="R&amp;D"><text x="210.781px" y="157.685px" style="font-family:'OpenSans-Extrabold', 'Open Sans', sans-serif;font-weight:800;font-size:6.489px;fill:#fff;">R&amp;D</text></g><g id="_24-" serif:id="24%"><text x="279.724px" y="158.685px" style="font-family:'OpenSans-Semibold', 'Open Sans', sans-serif;font-weight:600;font-size:7.3px;fill:#fff;">24%</text></g><g id="Caroline-Logan"><text x="479.182px" y="13.005px" style="font-family:'Poppins-Regular', 'Poppins';font-size:4.424px;fill:#496982;">Caroline Logan</text></g><g id="Administrator"><text x="479.182px" y="18.904px" style="font-family:'Poppins-Regular', 'Poppins';font-size:4.424px;fill:#8da9be;">Administrator</text></g><path id="Arrow3" serif:id="Arrow" d="M522.842,15.312l-0.006,0.005l-0.04,0.031c-0.084,0.048 -0.191,0.038 -0.265,-0.036l-1.253,-1.252c-0.071,-0.072 -0.081,-0.183 -0.034,-0.266l0.035,-0.047c0.086,-0.086 0.224,-0.089 0.312,0l1.095,1.095l1.096,-1.095c0.072,-0.072 0.183,-0.082 0.266,-0.035l0.046,0.035c0.087,0.087 0.09,0.224 0.001,0.313l-1.253,1.252Z" style="fill:#8da9be;"/><path id="ico_notification" d="M466.463,18.328c0.61,0 1.105,-0.495 1.105,-1.106l-2.211,0c0,0.611 0.495,1.106 1.106,1.106Zm3.722,-2.587c-0.334,-0.359 -0.959,-0.899 -0.959,-2.667c0,-1.342 -0.941,-2.417 -2.211,-2.681l0,-0.36c0,-0.306 -0.247,-0.553 -0.552,-0.553c-0.306,0 -0.553,0.247 -0.553,0.553l0,0.36c-1.27,0.264 -2.211,1.339 -2.211,2.681c0,1.768 -0.625,2.308 -0.959,2.667c-0.104,0.111 -0.149,0.245 -0.149,0.375c0.002,0.283 0.225,0.553 0.555,0.553l6.633,0c0.33,0 0.553,-0.27 0.555,-0.553c0.001,-0.13 -0.045,-0.264 -0.149,-0.375Z" style="fill:#8ea9bd;fill-rule:nonzero;"/><g id="Timesheets"><text x="75.788px" y="15.217px" style="font-family:'Poppins-Medium', 'Poppins';font-weight:500;font-size:5.162px;fill:#8ea9bd;">Timesheets</text></g><path id="Active-State-Copy-3" d="M105.337,26.255c0,-0.305 -0.247,-0.553 -0.553,-0.553l-28.388,0c-0.306,0 -0.553,0.248 -0.553,0.553c0,0.305 0.247,0.553 0.553,0.553l28.388,0c0.306,0 0.553,-0.248 0.553,-0.553Z" style="fill:#8ea9bd;"/><rect x="0.944" y="26.627" width="531" height="1" style="fill:#d1e3f0;"/><g id="Expenses"><text x="126.721px" y="15.217px" style="font-family:'Poppins-Medium', 'Poppins';font-weight:500;font-size:5.162px;fill:#9cb2cd;">Expenses</text></g><g id="Management"><text x="168.382px" y="15.217px" style="font-family:'Poppins-Medium', 'Poppins';font-weight:500;font-size:5.162px;fill:#9cb2cd;">Management</text></g><path id="Line-Copy-6" d="M158,279.178l359,0" style="fill:none;stroke:#222529;stroke-opacity:0.2;stroke-width:0.5px;stroke-linecap:round;stroke-linejoin:round;"/><path id="Line-Copy-7" d="M158,292.296l359,0" style="fill:none;stroke:#222529;stroke-opacity:0.2;stroke-width:0.5px;stroke-linecap:round;stroke-linejoin:round;"/><path id="Line-Copy" d="M158,305.091l359,0" style="fill:none;stroke:#222529;stroke-opacity:0.2;stroke-width:0.5px;stroke-linecap:round;stroke-linejoin:round;"/><path id="Line-Copy-2" d="M158,319.114l359,0" style="fill:none;stroke:#222529;stroke-opacity:0.2;stroke-width:0.5px;stroke-linecap:round;stroke-linejoin:round;"/></g></svg>